<svg xmlns="http://www.w3.org/2000/svg" xmlns:xlink="http://www.w3.org/1999/xlink"  viewBox="0 0 608 531.778">
  <defs>
    <filter id="Mask" x="395.056" y="89.389" width="94" height="94" filterUnits="userSpaceOnUse">
      <feOffset dy="3" input="SourceAlpha"/>
      <feGaussianBlur stdDeviation="4" result="blur"/>
      <feFlood flood-opacity="0.102"/>
      <feComposite operator="in" in2="blur"/>
      <feComposite in="SourceGraphic"/>
    </filter>
    <filter id="Rectangle_2" x="0" y="0" width="608" height="531.778" filterUnits="userSpaceOnUse">
      <feOffset dy="17" input="SourceAlpha"/>
      <feGaussianBlur stdDeviation="25.5" result="blur-2"/>
      <feFlood flood-opacity="0.251"/>
      <feComposite operator="in" in2="blur-2"/>
      <feComposite in="SourceGraphic"/>
    </filter>
    <linearGradient id="linear-gradient" x2="1" y2="1" gradientUnits="objectBoundingBox">
      <stop offset="0" stop-color="#21254e"/>
      <stop offset="1" stop-color="#2b4a83"/>
    </linearGradient>
    <filter id="Mask-2" x="395.056" y="89.389" width="94" height="94" filterUnits="userSpaceOnUse">
      <feOffset dy="3" input="SourceAlpha"/>
      <feGaussianBlur stdDeviation="4" result="blur-3"/>
      <feFlood flood-opacity="0.102"/>
      <feComposite operator="in" in2="blur-3"/>
      <feComposite in="SourceGraphic"/>
    </filter>
    <clipPath id="clip-path">
      <g transform="matrix(1, 0, 0, 1, 0, 0)" filter="url(#Mask)">
        <circle id="Mask-3" data-name="Mask" cx="35" cy="35" r="35" fill="#fff"/>
      </g>
    </clipPath>
    <filter id="Combined_Shape" x="92.333" y="287" width="244.444" height="47.667" filterUnits="userSpaceOnUse">
      <feOffset dy="3" input="SourceAlpha"/>
      <feGaussianBlur stdDeviation="2.5" result="blur-4"/>
      <feFlood flood-opacity="0.102"/>
      <feComposite operator="in" in2="blur-4"/>
      <feComposite in="SourceGraphic"/>
    </filter>
  </defs>
  <g id="zarinlink" transform="translate(76.5 59.5)">
    <g transform="matrix(1, 0, 0, 1, -76.5, -59.5)" filter="url(#Rectangle_2)">
      <rect id="Rectangle_2-2" data-name="Rectangle 2" width="455" height="378.778" rx="7.778" transform="translate(76.5 59.5)" fill="#fff"/>
    </g>
    <g id="Group_2" data-name="Group 2" transform="translate(185 16)">
      <path id="Combined_Shape-2" data-name="Combined Shape" d="M9.281,13.382a.356.356,0,0,1-.256-.6l3.733-3.748a.358.358,0,0,1,.613.248l.012,3.748a.35.35,0,0,1-.354.356ZM.557,12.826a1.9,1.9,0,0,1,0-2.686L10.142.557A1.9,1.9,0,0,1,12.825,3.24L3.241,12.826a1.9,1.9,0,0,1-2.684,0ZM.013,4.106,0,.357A.357.357,0,0,1,.359,0H4.1a.356.356,0,0,1,.256.6L.625,4.353a.354.354,0,0,1-.254.107A.354.354,0,0,1,.013,4.106Z" transform="translate(56.618 2.059)" fill="#ffe422"/>
      <path id="Combined_Shape-3" data-name="Combined Shape" d="M49.1,14.253V7.865a1.185,1.185,0,1,1,2.371,0v6.388a1.185,1.185,0,1,1-2.371,0Zm-5.249,0V7.865a1.185,1.185,0,1,1,2.37,0v6.388a1.185,1.185,0,1,1-2.37,0ZM23.445,10.07V7.955a1.185,1.185,0,1,1,2.371,0V10.07a2.985,2.985,0,1,0,5.971,0V6.139a1.185,1.185,0,1,1,2.371,0v.538h5.138a1.188,1.188,0,0,1,0,2.376H34.157V10.07a5.356,5.356,0,1,1-10.712,0ZM0,10.271V7.955a1.185,1.185,0,1,1,2.371,0v2.316a2.766,2.766,0,0,0,2.735,2.791,2.766,2.766,0,0,0,2.735-2.791V7.88L7.761,1.2a1.185,1.185,0,1,1,2.371-.029l.08,6.643v2.454a5.142,5.142,0,0,1-5.106,5.167A5.142,5.142,0,0,1,0,10.271Zm16.2,5.024a1.345,1.345,0,0,1-.205-.061,1.259,1.259,0,0,1-.194-.1,1.1,1.1,0,0,1-.17-.138,1.223,1.223,0,0,1-.137-.169,1.311,1.311,0,0,1-.1-.2,1.356,1.356,0,0,1-.061-.206,1.137,1.137,0,0,1-.022-.22,1.115,1.115,0,0,1,.022-.217,1.389,1.389,0,0,1,.061-.209,1.367,1.367,0,0,1,.1-.192,1.049,1.049,0,0,1,.137-.17,1.37,1.37,0,0,1,.17-.14,1.5,1.5,0,0,1,.191-.1,1.161,1.161,0,0,1,.209-.065,1.113,1.113,0,0,1,.437,0,1.078,1.078,0,0,1,.209.065,1.5,1.5,0,0,1,.191.1,1.3,1.3,0,0,1,.169.14,1.244,1.244,0,0,1,.141.17,1.344,1.344,0,0,1,.1.192,1.067,1.067,0,0,1,.061.209,1.122,1.122,0,0,1,.025.217,1.142,1.142,0,0,1-.025.22,1.042,1.042,0,0,1-.061.206,1.292,1.292,0,0,1-.1.2,1.5,1.5,0,0,1-.141.169,1.047,1.047,0,0,1-.169.138,1.41,1.41,0,0,1-.191.1,1.389,1.389,0,0,1-.209.061,1.108,1.108,0,0,1-.217.022A1.135,1.135,0,0,1,16.2,15.295Zm20.362-2.417a.93.93,0,0,1,0-1.86h3.188a.93.93,0,0,1,0,1.86Zm-21.736-.373a.93.93,0,0,1,0-1.86h3.187a.93.93,0,0,1,0,1.86ZM13.556,9.053a1.216,1.216,0,0,1-.238-.024c-.021,0-.04-.014-.06-.019A1.194,1.194,0,0,1,13.1,8.96c-.025-.011-.048-.027-.072-.04a1.035,1.035,0,0,1-.129-.069c-.024-.016-.044-.037-.067-.054s-.076-.058-.109-.09-.036-.044-.054-.066a1.07,1.07,0,0,1-.091-.11c-.016-.024-.027-.05-.041-.076a.988.988,0,0,1-.067-.125.8.8,0,0,1-.029-.09A1.062,1.062,0,0,1,12.4,8.11c-.007-.033-.007-.069-.012-.1s-.014-.084-.014-.127L12.291,1.2a1.185,1.185,0,1,1,2.371-.029l.066,5.5h4.3a1.188,1.188,0,0,1,0,2.376Zm14.459-.4a1.127,1.127,0,0,1-.329-.791,1.109,1.109,0,0,1,.329-.788,1.147,1.147,0,0,1,1.575,0,1.124,1.124,0,0,1,.324.788A1.108,1.108,0,0,1,28.8,8.981,1.122,1.122,0,0,1,28.014,8.656ZM49.5,4.925a1.146,1.146,0,0,1-.328-.791A1.119,1.119,0,0,1,50.5,3.039a1.078,1.078,0,0,1,.209.065,1.394,1.394,0,0,1,.192.1,1.237,1.237,0,0,1,.168.141,1.121,1.121,0,0,1,0,1.579,1,1,0,0,1-.168.137,1.006,1.006,0,0,1-.4.167,1.144,1.144,0,0,1-.221.022A1.126,1.126,0,0,1,49.5,4.925Z" fill="#303030"/>
    </g>
    <path id="Line_Copy" data-name="Line Copy" d="M231.778.778H0" transform="translate(23.333 46.667)" fill="none" stroke="#f2f3f5" stroke-linecap="square" stroke-miterlimit="10" stroke-width="0.778"/>
    <path id="Rectangle_2-3" data-name="Rectangle 2" d="M0,0H171.111a7.778,7.778,0,0,1,7.778,7.778V371a7.778,7.778,0,0,1-7.778,7.778H0a0,0,0,0,1,0,0V0A0,0,0,0,1,0,0Z" transform="translate(276.111)" fill="url(#linear-gradient)"/>
    <g id="Rectangle_3" data-name="Rectangle 3" transform="translate(24.111 63.111)" fill="#fff" stroke="#c5c9cd" stroke-miterlimit="10" stroke-width="0.778" opacity="0.552">
      <rect width="229.444" height="29.556" rx="3.889" stroke="none"/>
      <rect x="0.389" y="0.389" width="228.667" height="28.778" rx="3.5" fill="none"/>
    </g>
    <path id="Rectangle_3-2" data-name="Rectangle 3" d="M3.889,0H58.333a0,0,0,0,1,0,0V28a0,0,0,0,1,0,0H3.889A3.889,3.889,0,0,1,0,24.111V3.889A3.889,3.889,0,0,1,3.889,0Z" transform="translate(24.889 63.889)" fill="#f2f3f5"/>
    <g id="Rectangle_3_Copy" data-name="Rectangle 3 Copy" transform="translate(23.333 104.333)" fill="#fff" stroke="#c5c9cd" stroke-miterlimit="10" stroke-width="0.778">
      <rect width="229.444" height="29.556" rx="3.889" stroke="none"/>
      <rect x="0.389" y="0.389" width="228.667" height="28.778" rx="3.5" fill="none"/>
    </g>
    <g id="Rectangle_3_Copy_2" data-name="Rectangle 3 Copy 2" transform="translate(23.333 145.556)" fill="#fff" stroke="#c5c9cd" stroke-miterlimit="10" stroke-width="0.778" opacity="0.552">
      <rect width="229.444" height="29.556" rx="3.889" stroke="none"/>
      <rect x="0.389" y="0.389" width="228.667" height="28.778" rx="3.5" fill="none"/>
    </g>
    <g id="Rectangle_3_Copy_3" data-name="Rectangle 3 Copy 3" transform="translate(23.333 186.778)" fill="#fff" stroke="#c5c9cd" stroke-miterlimit="10" stroke-width="0.778" opacity="0.552">
      <rect width="229.444" height="29.556" rx="3.889" stroke="none"/>
      <rect x="0.389" y="0.389" width="228.667" height="28.778" rx="3.5" fill="none"/>
    </g>
    <g id="Rectangle_10" data-name="Rectangle 10" transform="translate(330.556 38.889)">
      <g transform="matrix(1, 0, 0, 1, -407.06, -98.39)" filter="url(#Mask-2)">
        <circle id="Mask-4" data-name="Mask" cx="35" cy="35" r="35" transform="translate(407.06 98.39)" fill="#fff"/>
      </g>
    </g>
    <path id="گردنبندطرحجواهر" d="M36.183,14.27a3.919,3.919,0,0,1-1.345-.744,3.234,3.234,0,0,1-.868-1.2,3.315,3.315,0,0,1-.259-1.336c0-.091,0-.181.011-.271a2.906,2.906,0,0,1,.3-1.13,3.716,3.716,0,0,1,.693-.958,4.886,4.886,0,0,1,1-.768A6.788,6.788,0,0,1,36.941,7.3,7.953,7.953,0,0,1,38.3,6.962a8.162,8.162,0,0,1,1.287-.1h.125a8.781,8.781,0,0,1-.882-.39q-.412-.212-.779-.392a7.185,7.185,0,0,0-.7-.3,1.86,1.86,0,0,0-.641-.122,1.105,1.105,0,0,0-.452.105,2.225,2.225,0,0,0-.449.271,2.693,2.693,0,0,0-.39.368,2.05,2.05,0,0,0-.278.4l-1.153-.741a5.306,5.306,0,0,1,.468-.688,3.083,3.083,0,0,1,.584-.557,2.9,2.9,0,0,1,.739-.384,3.174,3.174,0,0,1,.931-.167,3.081,3.081,0,0,1,.658.07,3.863,3.863,0,0,1,.633.2,5.77,5.77,0,0,1,.611.3c.2.112.4.233.593.363q.459.3.833.509a7.176,7.176,0,0,0,.707.344,5.7,5.7,0,0,0,.641.224c.206.058.417.109.634.152l-.427,1.59-.125.005q-.059.005-.14.005t-.184-.005C41.04,8,40.929,8,40.814,8q-.373,0-.912.054a10.139,10.139,0,0,0-1.2.2,9.933,9.933,0,0,0-1.3.386,5.921,5.921,0,0,0-1.142.563,3.17,3.17,0,0,0-.814.733,1.545,1.545,0,0,0-.327.9v.1a1.887,1.887,0,0,0,.229.94,1.987,1.987,0,0,0,.644.684,2.941,2.941,0,0,0,.955.406,4.807,4.807,0,0,0,1.125.13,4.379,4.379,0,0,0,1.474-.248,5.271,5.271,0,0,0,1.366-.742l.812,1.137a7.31,7.31,0,0,1-1.807.944,6.124,6.124,0,0,1-2.05.337A5.331,5.331,0,0,1,36.183,14.27ZM82.4,13.055q.378-.194.76-.422a8.134,8.134,0,0,0,.728-.487,7.576,7.576,0,0,0,.646-.541,3.941,3.941,0,0,0,.52-.589,2.958,2.958,0,0,0,.346-.634,1.794,1.794,0,0,0,.128-.665,2.29,2.29,0,0,0-.071-.538c-.047-.2-.106-.4-.178-.615s-.149-.428-.232-.646-.159-.43-.228-.636l1.3-.541q.211.633.387,1.048a3.576,3.576,0,0,0,.346.654,1.039,1.039,0,0,0,.357.336.931.931,0,0,0,.425.094h.628q.265,0,.549-.005a5.365,5.365,0,0,0,.549-.038,3.111,3.111,0,0,0,.5-.1,1.322,1.322,0,0,0,.417-.2.946.946,0,0,0,.282-.336,1.1,1.1,0,0,0,.1-.5,1.878,1.878,0,0,0-.19-.8,4.434,4.434,0,0,0-.519-.839,9.706,9.706,0,0,0-.776-.885q-.447-.455-.961-.925l.147-1.293,4.307-1.915.546,1.288L89.69,3.846c.162.137.323.282.484.433s.323.319.49.5a6.159,6.159,0,0,1,.633.831,5.32,5.32,0,0,1,.419.8,4.148,4.148,0,0,1,.233.73,3.1,3.1,0,0,1,.073.634A2.4,2.4,0,0,1,91.808,8.8a2.366,2.366,0,0,1-.576.782,2.618,2.618,0,0,1-.841.5,2.889,2.889,0,0,1-1,.175h-1.8a2.711,2.711,0,0,1-.311-.032,1.232,1.232,0,0,1-.468-.2,3.384,3.384,0,0,1-.417,1.307,5.687,5.687,0,0,1-.868,1.172,7.752,7.752,0,0,1-1.174,1,10.525,10.525,0,0,1-1.339.8Zm-40.154,0q.379-.194.76-.422a8.25,8.25,0,0,0,.727-.487,7.735,7.735,0,0,0,.647-.541,3.933,3.933,0,0,0,.519-.589,2.962,2.962,0,0,0,.347-.634,1.811,1.811,0,0,0,.127-.665,2.333,2.333,0,0,0-.07-.538c-.047-.2-.106-.4-.179-.615s-.149-.428-.232-.646-.158-.43-.228-.636l1.3-.541q.212.633.387,1.048a3.572,3.572,0,0,0,.346.654,1.023,1.023,0,0,0,.357.336.925.925,0,0,0,.425.094h.772l.04-.07c.053-.1.135-.231.262-.431.115-.18.26-.385.43-.608.031-.22.058-.5.081-.86s.034-.727.038-1.126c0-.216,0-.444-.014-.678s-.024-.509-.047-.8-.05-.654-.089-1.063c-.035-.385-.082-.86-.143-1.452l1.424-.369c.094.693.166,1.41.215,2.132s.076,1.445.076,2.164v.439c.194-.167.394-.322.608-.477a4.938,4.938,0,0,1,.661-.4,3.7,3.7,0,0,1,.716-.275,2.93,2.93,0,0,1,.779-.1,2.318,2.318,0,0,1,.779.13,2,2,0,0,1,.652.376,2.026,2.026,0,0,1,.468.6,2.185,2.185,0,0,1,.229.79c0,.049,0,.1,0,.162a2.958,2.958,0,0,1-.166.988,2.7,2.7,0,0,1-.491.851,3.272,3.272,0,0,1-.782.664,5,5,0,0,1-.98.46,6.042,6.042,0,0,1-1.1.265,7.719,7.719,0,0,1-1.134.084H47.432a2.677,2.677,0,0,1-.311-.032,1.22,1.22,0,0,1-.468-.2,3.4,3.4,0,0,1-.417,1.307,5.692,5.692,0,0,1-.868,1.172,7.752,7.752,0,0,1-1.175,1,10.525,10.525,0,0,1-1.339.8Zm10.1-6.6a3.314,3.314,0,0,0-.8.425,5.928,5.928,0,0,0-.888.786,7.291,7.291,0,0,0-.9,1.21h.515c.231,0,.488-.005.76-.016s.583-.035.886-.075A6.344,6.344,0,0,0,52.8,8.6a3.117,3.117,0,0,0,.766-.319,1.608,1.608,0,0,0,.53-.5,1.109,1.109,0,0,0,.167-.617.925.925,0,0,0-.005-.1.6.6,0,0,0-.105-.3.809.809,0,0,0-.26-.24,1.443,1.443,0,0,0-.392-.159,1.91,1.91,0,0,0-.422-.044h-.093A2.418,2.418,0,0,0,52.344,6.45ZM0,13.055q.379-.194.761-.422a8.25,8.25,0,0,0,.727-.487,7.734,7.734,0,0,0,.647-.541,3.984,3.984,0,0,0,.519-.589A3,3,0,0,0,3,10.382a1.811,1.811,0,0,0,.127-.665,2.334,2.334,0,0,0-.07-.538c-.047-.2-.107-.4-.179-.615s-.149-.428-.232-.646-.159-.43-.228-.636l1.3-.541q.211.633.387,1.048a3.517,3.517,0,0,0,.346.654,1.029,1.029,0,0,0,.356.336.93.93,0,0,0,.425.094h.056l.245,0h.076c.088,0,.174-.005.256-.011l.095-.006L6,8.85l.026,0h.011l.091-.006.218-.012.12-.006a2.352,2.352,0,0,1-.391-.746,2.76,2.76,0,0,1-.128-.828,2.7,2.7,0,0,1,.066-.593A2.558,2.558,0,0,1,6.206,6.1,2.372,2.372,0,0,1,6.529,5.6a2.041,2.041,0,0,1,.446-.4.687.687,0,0,1-.122-.049c-.054-.026-.135-.069-.247-.13l.806-1.314a.656.656,0,0,1,.152.062l.024.011c.053.025.113.055.182.09l.429.215.01,0,.019.01.033.017.02.011c.015.006.03.014.045.023l.012.005.029.015c.159.081.347.174.545.269.1.053.212.105.319.157l.043.021.142.069.059.027c.183.089.359.171.525.245q.273.121.509.229l.113.05.266.12c.257.117.488.233.685.347a4.1,4.1,0,0,1,.535.363,2.961,2.961,0,0,1,.446.448A2.211,2.211,0,0,1,13,7.411a2.25,2.25,0,0,1,.065.525,2.833,2.833,0,0,1-.07.552,2.165,2.165,0,0,1-.355.746,2.371,2.371,0,0,1-.744.688,1.687,1.687,0,0,1-.381.157,4.193,4.193,0,0,1-.472.109c-.154.028-.313.049-.486.066-.157.014-.3.021-.426.021-.154,0-.324-.006-.5-.019-.2-.015-.385-.035-.563-.062-.2-.031-.384-.067-.554-.108a2.955,2.955,0,0,1-.481-.157,6.672,6.672,0,0,1-1.219.246,13.02,13.02,0,0,1-1.524.085h-.1v0a2.677,2.677,0,0,1-.311-.032,1.22,1.22,0,0,1-.468-.2,3.4,3.4,0,0,1-.417,1.307,5.692,5.692,0,0,1-.868,1.172,7.752,7.752,0,0,1-1.174,1,10.525,10.525,0,0,1-1.339.8ZM10.589,6.8c0,.066,0,.132,0,.194a3.131,3.131,0,0,1-.164,1,2.922,2.922,0,0,1-.491.895h.009c.051.006.107.012.17.016s.107,0,.167,0a2.5,2.5,0,0,0,.641-.077,2.009,2.009,0,0,0,.511-.209,1.119,1.119,0,0,0,.341-.3.624.624,0,0,0,.124-.367.721.721,0,0,0-.105-.357,1.656,1.656,0,0,0-.283-.36,2.7,2.7,0,0,0-.422-.336,4.271,4.271,0,0,0-.519-.29C10.58,6.665,10.586,6.726,10.589,6.8ZM7.861,6.051a1.281,1.281,0,0,0-.343.333,1.685,1.685,0,0,0-.246.481,1.232,1.232,0,0,0-.07.4,1.042,1.042,0,0,0,0,.114,1.433,1.433,0,0,0,.1.352,1.6,1.6,0,0,0,.184.332,1.386,1.386,0,0,0,.251.27.886.886,0,0,0,.3.166,1.823,1.823,0,0,0,.413-.148,1.32,1.32,0,0,0,.358-.268,1.511,1.511,0,0,0,.272-.409,1.955,1.955,0,0,0,.158-.565,1.565,1.565,0,0,0,.009-.162.9.9,0,0,0-.075-.355,1,1,0,0,0-.224-.319,1.217,1.217,0,0,0-.328-.229A1.263,1.263,0,0,0,8.3,5.939c-.028,0-.056-.005-.086-.005A.662.662,0,0,0,7.861,6.051ZM17.1,14.045h0l-.324-1.353a7.775,7.775,0,0,0,1.436-.418,5.849,5.849,0,0,0,1.112-.588,3.554,3.554,0,0,0,.766-.693,2.006,2.006,0,0,0,.391-.736c-.3,0-.588-.009-.854-.026a5.8,5.8,0,0,1-.788-.1,3.287,3.287,0,0,1-.681-.222,1.735,1.735,0,0,1-.536-.38,1.654,1.654,0,0,1-.349-.571,2.321,2.321,0,0,1-.123-.8,3.134,3.134,0,0,1,.065-.622,3.7,3.7,0,0,1,.187-.636,3.268,3.268,0,0,1,.3-.589,2.4,2.4,0,0,1,.411-.492,1.833,1.833,0,0,1,.513-.338,1.49,1.49,0,0,1,.607-.124,2.073,2.073,0,0,1,1.532.746,3.508,3.508,0,0,1,.41.569,4.458,4.458,0,0,1,.32.67,5.292,5.292,0,0,1,.218.745,4.843,4.843,0,0,1,.105.792h1.32A7.6,7.6,0,0,0,24.5,8.745a12.768,12.768,0,0,0,1.382-.336q.687-.208,1.342-.479t1.239-.557A4.922,4.922,0,0,1,27.6,7.1q-.4-.17-.757-.333c-.239-.108-.467-.2-.688-.281a1.923,1.923,0,0,0-.654-.12.925.925,0,0,0-.355.068,1.448,1.448,0,0,0-.306.17,1.559,1.559,0,0,0-.251.228,3.023,3.023,0,0,0-.2.24q-.084.116-.138.208l-.076.13-1.126-.731a4.382,4.382,0,0,1,.438-.63,3.569,3.569,0,0,1,.566-.546,2.7,2.7,0,0,1,.673-.384,2.076,2.076,0,0,1,.769-.144,3.168,3.168,0,0,1,.827.112,6.272,6.272,0,0,1,.814.281q.4.171.809.365t.82.365a7.4,7.4,0,0,0,.836.287,3.4,3.4,0,0,0,.866.122l-.114,1.4q-.757.362-1.58.769t-1.721.749A15.1,15.1,0,0,1,25.184,10a9.5,9.5,0,0,1-2.048.257H21.7a4.158,4.158,0,0,1-.623,1.443,4.957,4.957,0,0,1-1.051,1.119,5.833,5.833,0,0,1-1.367.783,7.336,7.336,0,0,1-1.562.445ZM18.926,6.86a1.351,1.351,0,0,0-.3.305,1.841,1.841,0,0,0-.224.415,1.188,1.188,0,0,0-.091.443.654.654,0,0,0,.106.38.807.807,0,0,0,.27.243,1.379,1.379,0,0,0,.374.138,3.034,3.034,0,0,0,.414.063c.084.006.166.011.249.013h.013l.059,0,.207.006c.082,0,.169.005.284.005h.266a2.625,2.625,0,0,0-.079-.436,4.245,4.245,0,0,0-.159-.473,4.123,4.123,0,0,0-.221-.457,2.68,2.68,0,0,0-.269-.39,1.467,1.467,0,0,0-.294-.272.534.534,0,0,0-.3-.1A.527.527,0,0,0,18.926,6.86Zm51.313,5.156,1.033-1.033,1.039,1.033-1.039,1.039Zm-44.847-.011,1.034-1.033,1.039,1.033-1.039,1.039ZM80.27,10.311a4.006,4.006,0,0,1-.725-.068,5.224,5.224,0,0,1-.723-.186,6.534,6.534,0,0,1-.682-.274,6.325,6.325,0,0,1-.608-.328l.573-1.326a4.448,4.448,0,0,0,.5.266,6.351,6.351,0,0,0,.6.243,5.873,5.873,0,0,0,.611.179,2.36,2.36,0,0,0,.527.07c.061,0,.138,0,.228-.005s.185-.012.286-.024a2.228,2.228,0,0,0,.3-.059,1.08,1.08,0,0,0,.274-.113.636.636,0,0,0,.2-.185.5.5,0,0,0,.081-.273V8.213a1.229,1.229,0,0,0-.122-.491,3.434,3.434,0,0,0-.333-.573,6.035,6.035,0,0,0-.487-.6q-.275-.3-.573-.581t-.6-.515a6.521,6.521,0,0,0-.561-.4l.806-1.2a10.078,10.078,0,0,1,.982.769,8.528,8.528,0,0,1,.893.912,6.777,6.777,0,0,1,.709,1.009,4.066,4.066,0,0,1,.43,1.06,2.662,2.662,0,0,1,.07.589,2.613,2.613,0,0,1-.1.65,1.735,1.735,0,0,1-.452.744,2.309,2.309,0,0,1-.893.56,3,3,0,0,1-1.022.167C80.4,10.317,80.335,10.315,80.27,10.311Zm-6.893-.054h-.216v0a2.075,2.075,0,0,1-.787-.166,2,2,0,0,1-.625-.433,2.421,2.421,0,0,1-.906.454,4.951,4.951,0,0,1-1.28.146h-.217v0a2.074,2.074,0,0,1-.787-.166,2.014,2.014,0,0,1-.626-.433,2.408,2.408,0,0,1-.906.454,4.946,4.946,0,0,1-1.28.146h-.216a2.738,2.738,0,0,1-.495-.05,1.857,1.857,0,0,1-.43-.14,1.521,1.521,0,0,1-.325-.212,3.357,3.357,0,0,1-.27-.262,3.181,3.181,0,0,1-.531.324,3.027,3.027,0,0,1-.568.206,4.007,4.007,0,0,1-.617.105c-.213.02-.438.03-.677.03a2.771,2.771,0,0,1-1.273-.3,4.229,4.229,0,0,1-1.123-.844l.8-1.12a3.8,3.8,0,0,0,.92.657,1.9,1.9,0,0,0,.817.2,2.5,2.5,0,0,0,.4-.035,3.262,3.262,0,0,0,.425-.1,3.156,3.156,0,0,0,.4-.155,1.944,1.944,0,0,0,.333-.192L61.592,4.2l1.283-.536q.092.238.206.509c.076.18.157.375.243.584l1.358,3.273a3.5,3.5,0,0,0,.159.338,1.173,1.173,0,0,0,.2.265.8.8,0,0,0,.254.174.836.836,0,0,0,.333.062h.108a2.228,2.228,0,0,0,1.247-.284.96.96,0,0,0,.419-.852,2.368,2.368,0,0,0-.076-.506c-.05-.214-.122-.482-.217-.8l1.331-.374c.047.158.084.3.112.425s.05.248.07.374.036.257.049.4.026.31.04.5q.016.173.051.37a1.349,1.349,0,0,0,.116.363.808.808,0,0,0,.22.276.556.556,0,0,0,.36.111h.092a2.226,2.226,0,0,0,1.246-.284.96.96,0,0,0,.419-.852,2.368,2.368,0,0,0-.076-.506c-.05-.214-.122-.482-.216-.8l1.331-.374c.047.158.084.3.111.425s.05.248.07.374.036.257.049.4.026.31.041.5q.016.173.051.37a1.319,1.319,0,0,0,.117.363.806.806,0,0,0,.219.276.558.558,0,0,0,.36.111h.763a4.747,4.747,0,0,0,.522-.03,1.67,1.67,0,0,0,.484-.124.9.9,0,0,0,.354-.274.754.754,0,0,0,.139-.476,1.867,1.867,0,0,0-.059-.4c-.04-.169-.093-.357-.157-.562s-.141-.418-.229-.638-.182-.426-.279-.617l1.25-.617c.09.205.18.424.271.654s.17.468.24.712a7.064,7.064,0,0,1,.17.733,4.065,4.065,0,0,1,.066.72A2.422,2.422,0,0,1,76.6,9a1.9,1.9,0,0,1-.573.715,2.466,2.466,0,0,1-.879.411,4.482,4.482,0,0,1-1.123.132ZM14.517,7.092c0-.368-.005-.712-.016-1.033q-.043-1.11-.1-2.086T14.257,2.1l1.391-.455q.135,1.034.19,1.973T15.9,5.458q.011.763.008,1.412T15.9,8.079q-.011.56-.032,1.045c-.014.322-.029.625-.043.905l-1.418.217Q14.517,8.46,14.517,7.092Zm51.7-2.873,1.034-1.033,1.039,1.033L67.253,5.258ZM73.853,3.3l1.033-1.033L75.926,3.3l-1.04,1.039ZM88.306,1.686,92.183,0l.242.544L88.269,2.375Z" transform="translate(337.771 138.461)" fill="#fff"/>
    <path id="گردنبندزنانهطرحشماره۲" d="M42.239,14.27a3.919,3.919,0,0,1-1.345-.744,3.234,3.234,0,0,1-.868-1.2,3.315,3.315,0,0,1-.259-1.336c0-.091,0-.181.011-.271a2.906,2.906,0,0,1,.3-1.13,3.716,3.716,0,0,1,.693-.958,4.911,4.911,0,0,1,1-.768A6.788,6.788,0,0,1,43,7.3a7.953,7.953,0,0,1,1.363-.341,8.173,8.173,0,0,1,1.288-.1h.124a8.873,8.873,0,0,1-.882-.39q-.412-.212-.779-.392a7.175,7.175,0,0,0-.7-.3,1.869,1.869,0,0,0-.642-.122,1.108,1.108,0,0,0-.452.105,2.25,2.25,0,0,0-.449.271,2.693,2.693,0,0,0-.39.368,2.05,2.05,0,0,0-.278.4l-1.153-.741a5.4,5.4,0,0,1,.468-.688,3.061,3.061,0,0,1,.585-.557,2.9,2.9,0,0,1,.738-.384,3.179,3.179,0,0,1,.931-.167,3.081,3.081,0,0,1,.658.07,3.836,3.836,0,0,1,.633.2,5.686,5.686,0,0,1,.611.3c.2.112.4.233.593.363q.459.3.833.509a7.167,7.167,0,0,0,.706.344,5.767,5.767,0,0,0,.641.224c.206.058.417.109.634.152l-.428,1.59-.124.005c-.04,0-.087.005-.141.005s-.115,0-.184-.005C47.1,8,46.985,8,46.87,8q-.373,0-.912.054a10.126,10.126,0,0,0-1.2.2,9.946,9.946,0,0,0-1.3.386,5.921,5.921,0,0,0-1.142.563,3.185,3.185,0,0,0-.815.733,1.545,1.545,0,0,0-.327.9v.1a1.887,1.887,0,0,0,.229.94,2,2,0,0,0,.644.684,2.94,2.94,0,0,0,.955.406,4.812,4.812,0,0,0,1.125.13,4.379,4.379,0,0,0,1.474-.248,5.271,5.271,0,0,0,1.366-.742l.812,1.137a7.294,7.294,0,0,1-1.807.944,6.124,6.124,0,0,1-2.05.337A5.331,5.331,0,0,1,42.239,14.27ZM112.3,13.055q.379-.194.76-.422a8.249,8.249,0,0,0,.727-.487,7.734,7.734,0,0,0,.647-.541,3.984,3.984,0,0,0,.519-.589,3,3,0,0,0,.347-.634,1.811,1.811,0,0,0,.127-.665,2.334,2.334,0,0,0-.07-.538c-.047-.2-.107-.4-.179-.615s-.149-.428-.232-.646-.159-.43-.228-.636l1.3-.541q.211.633.387,1.048a3.517,3.517,0,0,0,.346.654,1.029,1.029,0,0,0,.356.336.93.93,0,0,0,.425.094h.628c.176,0,.36,0,.549-.005a5.365,5.365,0,0,0,.549-.038,3.091,3.091,0,0,0,.5-.1,1.313,1.313,0,0,0,.417-.2.937.937,0,0,0,.282-.336,1.1,1.1,0,0,0,.1-.5,1.89,1.89,0,0,0-.189-.8,4.488,4.488,0,0,0-.52-.839,9.707,9.707,0,0,0-.776-.885q-.447-.455-.96-.925l.146-1.293,4.307-1.915.547,1.288-3.528,1.526c.162.137.324.282.484.433s.324.319.49.5a6.085,6.085,0,0,1,.633.831,5.319,5.319,0,0,1,.419.8,4.074,4.074,0,0,1,.233.73,3.1,3.1,0,0,1,.073.634,2.4,2.4,0,0,1-.214,1.028,2.366,2.366,0,0,1-.576.782,2.618,2.618,0,0,1-.841.5,2.889,2.889,0,0,1-1,.175h-1.8a2.683,2.683,0,0,1-.311-.032,1.22,1.22,0,0,1-.468-.2,3.414,3.414,0,0,1-.417,1.307,5.692,5.692,0,0,1-.868,1.172,7.752,7.752,0,0,1-1.174,1,10.525,10.525,0,0,1-1.339.8Zm-64,0q.379-.194.76-.422a8.264,8.264,0,0,0,.728-.487,7.719,7.719,0,0,0,.646-.541,3.933,3.933,0,0,0,.519-.589,2.962,2.962,0,0,0,.347-.634,1.811,1.811,0,0,0,.127-.665,2.334,2.334,0,0,0-.07-.538c-.047-.2-.106-.4-.178-.615s-.15-.428-.233-.646-.158-.43-.227-.636l1.3-.541q.212.633.387,1.048a3.628,3.628,0,0,0,.347.654,1.031,1.031,0,0,0,.357.336.925.925,0,0,0,.425.094h.774l.038-.07c.055-.1.138-.236.262-.43.114-.179.258-.384.43-.609.032-.222.059-.512.081-.86s.035-.72.038-1.125c0-.225,0-.454-.013-.679s-.023-.454-.047-.8c-.023-.326-.053-.682-.089-1.062-.037-.4-.084-.878-.143-1.453l1.423-.369c.1.717.168,1.434.216,2.132s.076,1.435.076,2.164v.439c.2-.168.4-.328.609-.477a4.99,4.99,0,0,1,.66-.4,3.81,3.81,0,0,1,.717-.276,2.874,2.874,0,0,1,.779-.1,2.328,2.328,0,0,1,.778.13,1.979,1.979,0,0,1,1.121.976,2.139,2.139,0,0,1,.227.789c0,.058.006.111.006.162a2.991,2.991,0,0,1-.165.987,2.7,2.7,0,0,1-.494.852,3.23,3.23,0,0,1-.781.662,5.027,5.027,0,0,1-.979.461,6.083,6.083,0,0,1-1.1.265,7.809,7.809,0,0,1-1.134.083h-3.3a2.449,2.449,0,0,1-.355-.032,1.226,1.226,0,0,1-.468-.2,3.384,3.384,0,0,1-.417,1.307,5.659,5.659,0,0,1-.868,1.172,7.745,7.745,0,0,1-1.174,1,10.525,10.525,0,0,1-1.339.8Zm10.1-6.6a3.3,3.3,0,0,0-.8.424,5.909,5.909,0,0,0-.887.785,7.185,7.185,0,0,0-.9,1.212h.513c.228,0,.483-.005.761-.017a8.824,8.824,0,0,0,.885-.076,6.348,6.348,0,0,0,.884-.177,3.1,3.1,0,0,0,.766-.319,1.594,1.594,0,0,0,.531-.5,1.129,1.129,0,0,0,.167-.617c0-.035,0-.069,0-.1a.6.6,0,0,0-.105-.3.809.809,0,0,0-.26-.24,1.458,1.458,0,0,0-.391-.159,1.93,1.93,0,0,0-.423-.044h-.092A2.4,2.4,0,0,0,58.4,6.451Zm22.8,6.5q.385-.189.758-.419a8.4,8.4,0,0,0,.711-.49,6.769,6.769,0,0,0,.628-.546,4.026,4.026,0,0,0,.5-.6,2.937,2.937,0,0,0,.327-.633,1.871,1.871,0,0,0,.12-.654,3.226,3.226,0,0,0-.07-.65c-.047-.227-.1-.452-.171-.673s-.135-.436-.205-.642-.129-.388-.176-.546l1.358-.438c.073.228.148.464.225.712s.148.5.211.749.115.5.155.755a4.7,4.7,0,0,1,.059.734,3.066,3.066,0,0,1-.149.95,4.175,4.175,0,0,1-.41.893,5.207,5.207,0,0,1-.623.819,7.706,7.706,0,0,1-.782.736,8.922,8.922,0,0,1-.892.644,10.487,10.487,0,0,1-.953.536Zm-67.972,0q.383-.189.757-.419a8.277,8.277,0,0,0,.712-.49,6.64,6.64,0,0,0,.627-.546,3.919,3.919,0,0,0,.5-.6,2.9,2.9,0,0,0,.328-.633,1.891,1.891,0,0,0,.119-.654,3.226,3.226,0,0,0-.07-.65c-.047-.227-.1-.452-.17-.673s-.135-.436-.206-.642-.129-.388-.175-.546L17,6.659l.225.712c.077.247.148.5.211.749s.114.5.154.755a4.7,4.7,0,0,1,.059.734,3.092,3.092,0,0,1-.149.95,4.136,4.136,0,0,1-.411.893,5.2,5.2,0,0,1-.622.819,7.8,7.8,0,0,1-.782.736,8.832,8.832,0,0,1-.893.644,10.354,10.354,0,0,1-.952.536Zm86.91-.931,1.034-1.033,1.039,1.033-1.039,1.039Zm-99-1.651q0-.882-.022-1.78T1.025,6.838q-.067-.85-.2-1.615A8.306,8.306,0,0,0,.481,3.846c-.043-.1-.08-.2-.111-.282S.309,3.4.276,3.321s-.07-.163-.112-.249A3.357,3.357,0,0,0,0,2.775l1.148-.736c.079.13.145.246.2.346s.1.2.14.289.08.186.116.282.082.2.136.322q.113.265.227.476a1.651,1.651,0,0,0,.257.36.938.938,0,0,0,.333.224,1.091,1.091,0,0,0,.428.076h.032a.853.853,0,0,0,.514-.143.777.777,0,0,0,.257-.347,1.483,1.483,0,0,0,.089-.463c.007-.169.011-.336.011-.5,0-.144-.005-.271-.016-.379s-.027-.232-.049-.373l1.337-.238c.029.205.053.4.073.595a5.322,5.322,0,0,1,.03.546,3.647,3.647,0,0,1-.138,1,2.736,2.736,0,0,1-.5.947,1.853,1.853,0,0,1-.7.536,2.252,2.252,0,0,1-.9.178A2.99,2.99,0,0,1,2.3,5.691q.076.568.116,1.18t.062,1.22Q2.5,8.7,2.5,9.281t0,1.085Zm32.9-.043a1.525,1.525,0,0,1-.465-.068,1.472,1.472,0,0,1-.387-.189,1.754,1.754,0,0,1-.313-.279,3.04,3.04,0,0,1-.247-.319,2.794,2.794,0,0,1-.27.333,1.6,1.6,0,0,1-.338.268,1.808,1.808,0,0,1-.433.181,2.2,2.2,0,0,1-.554.073h-.038a1.51,1.51,0,0,1-.452-.065,1.491,1.491,0,0,1-.384-.181,1.748,1.748,0,0,1-.319-.274,2.971,2.971,0,0,1-.262-.33,1.987,1.987,0,0,1-.247.293,1.5,1.5,0,0,1-.352.251,1.949,1.949,0,0,1-.49.176,2.932,2.932,0,0,1-.638.065h-.217a.928.928,0,0,1-.517-.164,1.811,1.811,0,0,1-.424-.426,1.5,1.5,0,0,0-.139.147c-.048.056-.1.115-.168.182a1.815,1.815,0,0,1-.18.158.417.417,0,0,1-.179.087,3.983,3.983,0,0,1-.661-.078c-.248-.049-.507-.113-.77-.192a7.741,7.741,0,0,1-.751-.272,3.489,3.489,0,0,1-.609-.319,5.545,5.545,0,0,1-.411.373,2.5,2.5,0,0,1-.417.274,2.166,2.166,0,0,1-.467.17,2.387,2.387,0,0,1-.464.058v0H21.26a2.3,2.3,0,0,1-1.666-.552,2.241,2.241,0,0,1-.574-1.667c0-.115,0-.306.012-.571q.008-.319.01-.749V6.5c0-.228,0-.472-.005-.734s-.01-.528-.017-.8-.017-.545-.03-.816-.028-.536-.046-.79-.04-.492-.065-.715-.054-.418-.086-.587l1.358-.406c.04.21.076.464.108.766s.061.623.086.966.044.691.057,1.047.02.69.02,1c0,.192,0,.394.005.609s.005.4.005.565c0,.137,0,.266,0,.387s0,.237-.005.349,0,.221-.005.329l0,.164v.253a1.342,1.342,0,0,0,.041.346.543.543,0,0,0,.143.252.586.586,0,0,0,.263.143,1.42,1.42,0,0,0,.37.043h.136a1.344,1.344,0,0,0,.66-.148,1.553,1.553,0,0,0,.455-.387,2.828,2.828,0,0,0,.333-.536c.084-.177.18-.372.293-.6s.22-.424.347-.628a3.315,3.315,0,0,1,.442-.564,2.1,2.1,0,0,1,.554-.409,1.518,1.518,0,0,1,.692-.157,1.863,1.863,0,0,1,.847.175,1.648,1.648,0,0,1,.573.482,2.47,2.47,0,0,1,.366.717,7.755,7.755,0,0,1,.227.887c.035.185.069.351.1.49a2.458,2.458,0,0,0,.111.365.837.837,0,0,0,.136.231.235.235,0,0,0,.176.077h.168a1.086,1.086,0,0,0,.533-.13A1.482,1.482,0,0,0,28.8,8.4,2.561,2.561,0,0,0,29.12,7.9a4.993,4.993,0,0,0,.24-.568c.068-.2.128-.387.178-.577s.1-.359.136-.511l1.353.3c-.032.1-.076.23-.13.387s-.105.322-.154.5-.089.351-.122.527a2.021,2.021,0,0,0-.038.373q0,.054.011.189a.514.514,0,0,0,.111.268.384.384,0,0,0,.328.132.743.743,0,0,0,.438-.138,1.429,1.429,0,0,0,.348-.363,2.634,2.634,0,0,0,.271-.511,5.559,5.559,0,0,0,.2-.587c.057-.2.1-.4.141-.588s.068-.362.089-.514l1.266.244q-.016.13-.046.308c-.02.12-.041.248-.063.387s-.042.284-.062.436-.035.3-.046.455v.086A1.39,1.39,0,0,0,33.6,8.4a.663.663,0,0,0,.114.26.628.628,0,0,0,.227.194.791.791,0,0,0,.346.078.974.974,0,0,0,.627-.194.716.716,0,0,0,.244-.6,2.836,2.836,0,0,0-.078-.633c-.053-.227-.116-.449-.19-.665s-.152-.42-.235-.612-.156-.35-.217-.476L35.6,5.112q.032.059.105.216c.049.1.1.234.167.387s.128.326.193.517.125.392.181.6a6.275,6.275,0,0,1,.135.646,4.219,4.219,0,0,1,.051.649,2.544,2.544,0,0,1-.154.909,1.848,1.848,0,0,1-.455.693,2,2,0,0,1-.738.438,2.869,2.869,0,0,1-.969.151ZM24.71,6.913a1.574,1.574,0,0,0-.309.349,3.165,3.165,0,0,0-.244.446c-.048.109-.112.256-.186.433.106.046.253.106.46.19.185.075.39.151.607.228s.422.139.657.2a3.471,3.471,0,0,0,.609.111c-.037-.151-.074-.31-.111-.473s-.078-.313-.128-.48-.1-.3-.158-.44a1.71,1.71,0,0,0-.2-.365.921.921,0,0,0-.267-.248.641.641,0,0,0-.34-.093A.6.6,0,0,0,24.71,6.913Zm85.458,3.4a4.006,4.006,0,0,1-.725-.068,5.257,5.257,0,0,1-.723-.186,6.517,6.517,0,0,1-.681-.274,6.235,6.235,0,0,1-.609-.328L108,8.131a4.291,4.291,0,0,0,.5.266,6.332,6.332,0,0,0,.6.243,5.874,5.874,0,0,0,.611.179,2.361,2.361,0,0,0,.527.07c.062,0,.138,0,.228-.005s.185-.012.287-.024a2.243,2.243,0,0,0,.3-.059,1.066,1.066,0,0,0,.274-.113.636.636,0,0,0,.2-.185.5.5,0,0,0,.081-.273V8.213a1.229,1.229,0,0,0-.121-.491,3.434,3.434,0,0,0-.333-.573,6.035,6.035,0,0,0-.487-.6q-.275-.3-.573-.581t-.6-.515a6.661,6.661,0,0,0-.56-.4l.805-1.2a10.2,10.2,0,0,1,.983.769,8.606,8.606,0,0,1,.892.912,6.712,6.712,0,0,1,.709,1.009,4.066,4.066,0,0,1,.43,1.06,2.661,2.661,0,0,1,.07.589,2.613,2.613,0,0,1-.1.65,1.735,1.735,0,0,1-.452.744,2.309,2.309,0,0,1-.893.56,3,3,0,0,1-1.022.167C110.3,10.317,110.232,10.315,110.167,10.311ZM10.28,10.119a2.088,2.088,0,0,1-.742-.4,1.774,1.774,0,0,1-.472-.642,2.163,2.163,0,0,1-.165-.86,3.442,3.442,0,0,1,.921-2.143c.115-.135.206-.235.284-.316s.163-.169.234-.241c-.031-.024-.063-.05-.094-.076L10.19,5.4c-.049-.04-.113-.1-.2-.171l.878-1.071c.159.125.348.287.563.482.236.213.517.5.838.85a4.478,4.478,0,0,1,1.359,2.732,2.253,2.253,0,0,1-.165.89A1.739,1.739,0,0,1,13,9.746a2.045,2.045,0,0,1-.745.384,3.566,3.566,0,0,1-.989.128A3.258,3.258,0,0,1,10.28,10.119Zm.554-3.427A5.106,5.106,0,0,0,10.5,7.2a3.871,3.871,0,0,0-.257.536,1.377,1.377,0,0,0-.1.485.423.423,0,0,0,.117.3.89.89,0,0,0,.289.2,1.538,1.538,0,0,0,.365.109,2.169,2.169,0,0,0,.349.032,3.15,3.15,0,0,0,.394-.026,1.4,1.4,0,0,0,.373-.1.753.753,0,0,0,.275-.2.454.454,0,0,0,.109-.313.992.992,0,0,0-.1-.384,3.529,3.529,0,0,0-.275-.5,6.106,6.106,0,0,0-.4-.536,5.679,5.679,0,0,0-.468-.5A3.7,3.7,0,0,0,10.834,6.692Zm92.44,3.566h-.216v0a2.079,2.079,0,0,1-.788-.166,2.009,2.009,0,0,1-.625-.433,2.414,2.414,0,0,1-.906.454,4.951,4.951,0,0,1-1.28.146h-.217v0a2.074,2.074,0,0,1-.787-.166,2.014,2.014,0,0,1-.626-.433,2.408,2.408,0,0,1-.906.454,4.938,4.938,0,0,1-1.279.146h-.217a2.738,2.738,0,0,1-.5-.05,1.857,1.857,0,0,1-.43-.14,1.543,1.543,0,0,1-.325-.212,3.359,3.359,0,0,1-.27-.262,3.211,3.211,0,0,1-.53.324,3.059,3.059,0,0,1-.569.206,3.988,3.988,0,0,1-.616.105c-.212.02-.438.03-.676.03a2.775,2.775,0,0,1-1.274-.3A4.229,4.229,0,0,1,89.12,9.11l.8-1.12a3.817,3.817,0,0,0,.92.657,1.9,1.9,0,0,0,.817.2,2.5,2.5,0,0,0,.4-.035,3.262,3.262,0,0,0,.425-.1,3.222,3.222,0,0,0,.4-.155,1.969,1.969,0,0,0,.332-.192L91.49,4.2l1.282-.536c.061.158.131.328.206.509s.157.375.243.584l1.358,3.273a3.5,3.5,0,0,0,.16.338,1.144,1.144,0,0,0,.194.265.8.8,0,0,0,.255.174.828.828,0,0,0,.332.062h.109a2.226,2.226,0,0,0,1.246-.284.96.96,0,0,0,.419-.852,2.368,2.368,0,0,0-.076-.506c-.05-.214-.122-.482-.216-.8l1.33-.374c.048.158.085.3.112.425s.05.248.07.374.036.257.049.4.026.31.041.5q.016.173.051.37a1.349,1.349,0,0,0,.116.363.819.819,0,0,0,.22.276.556.556,0,0,0,.36.111h.092a2.232,2.232,0,0,0,1.247-.284.962.962,0,0,0,.419-.852,2.381,2.381,0,0,0-.076-.506c-.05-.214-.122-.482-.216-.8l1.331-.374c.047.158.084.3.111.425s.05.248.07.374.036.257.049.4.026.31.041.5c.011.115.028.239.052.37a1.349,1.349,0,0,0,.116.363.806.806,0,0,0,.219.276.558.558,0,0,0,.36.111h.763a4.747,4.747,0,0,0,.522-.03,1.662,1.662,0,0,0,.484-.124.908.908,0,0,0,.355-.274.76.76,0,0,0,.138-.476,1.867,1.867,0,0,0-.059-.4c-.04-.169-.092-.357-.158-.562s-.141-.418-.229-.638-.181-.426-.279-.617l1.25-.617c.09.205.181.424.271.654s.17.468.24.712a7.07,7.07,0,0,1,.171.733,4.149,4.149,0,0,1,.065.72A2.409,2.409,0,0,1,106.493,9a1.89,1.89,0,0,1-.573.715,2.459,2.459,0,0,1-.879.411,4.474,4.474,0,0,1-1.122.132Zm-25.113,0h-.216a2.3,2.3,0,0,1-1.667-.552,2.245,2.245,0,0,1-.573-1.667c0-.115,0-.306.011-.571s.011-.589.011-.971c0-.228,0-.472-.005-.734s-.009-.528-.016-.8-.017-.545-.03-.816-.028-.536-.046-.79-.04-.492-.065-.715-.054-.418-.086-.587l1.358-.406c.04.21.076.464.108.766s.061.623.086.966.044.691.057,1.047.019.69.019,1c0,.192,0,.394.005.609s.005.4.005.565c0,.137,0,.266,0,.387s0,.237-.005.349l0,.166,0,.164c0,.109,0,.219,0,.33v.086a1.342,1.342,0,0,0,.04.346.537.537,0,0,0,.144.252.588.588,0,0,0,.262.143,1.427,1.427,0,0,0,.371.043h.9a4.735,4.735,0,0,0,.522-.03,1.662,1.662,0,0,0,.484-.124.9.9,0,0,0,.355-.274.76.76,0,0,0,.138-.476,1.867,1.867,0,0,0-.059-.4c-.04-.169-.092-.357-.157-.562s-.142-.418-.23-.638-.181-.426-.278-.617l1.249-.617c.091.205.181.424.271.654s.17.468.24.712a6.845,6.845,0,0,1,.171.733,4.149,4.149,0,0,1,.065.72A2.423,2.423,0,0,1,81.382,9a1.9,1.9,0,0,1-.574.715,2.459,2.459,0,0,1-.879.411,4.469,4.469,0,0,1-1.122.132Zm-7.287,0h-.217v0c-.151,0-.3-.009-.429-.017a1.763,1.763,0,0,1-.482-.092A1.365,1.365,0,0,1,69.31,9.9a1.767,1.767,0,0,1-.39-.488c-.227.032-.411.053-.579.066s-.349.022-.529.022a4.5,4.5,0,0,1-.577-.038,3.033,3.033,0,0,1-.554-.125,2.529,2.529,0,0,1-.5-.219,1.612,1.612,0,0,1-.4-.322,1.407,1.407,0,0,1-.268-.437,1.531,1.531,0,0,1-.1-.563,1.735,1.735,0,0,1,.119-.638,2.394,2.394,0,0,1,.32-.569,3.057,3.057,0,0,1,.465-.491,4.76,4.76,0,0,1,.557-.415,6.5,6.5,0,0,1,.591-.335c.206-.1.392-.185.571-.256l-.07-.823,1.369-.292,0,.039c0,.039.01.1.017.175s.018.179.03.286l.012.106c.01.1.021.2.031.3l0,.028.016.151.013.117c.006.056.013.111.017.164l.022.2c.017.15.031.281.04.39q.011.1.016.151l0,.033,0,.019c.052.441.1.821.15,1.13.044.286.083.52.116.695a3.559,3.559,0,0,0,.083.363,1.172,1.172,0,0,0,.052.138.726.726,0,0,0,.125.2.509.509,0,0,0,.161.125.718.718,0,0,0,.216.064,2,2,0,0,0,.293.019h.763a4.735,4.735,0,0,0,.522-.03,1.655,1.655,0,0,0,.484-.124.9.9,0,0,0,.355-.274.76.76,0,0,0,.138-.476,1.867,1.867,0,0,0-.059-.4c-.04-.169-.092-.357-.157-.562s-.141-.418-.23-.638-.181-.426-.278-.617l1.249-.617c.091.205.181.424.271.654s.17.468.241.712a7.064,7.064,0,0,1,.17.733,4.149,4.149,0,0,1,.065.72A2.423,2.423,0,0,1,74.093,9a1.9,1.9,0,0,1-.574.715,2.459,2.459,0,0,1-.879.411,4.469,4.469,0,0,1-1.122.132ZM67.9,6.449c-.115.062-.235.13-.357.205s-.244.159-.359.247a2.767,2.767,0,0,0-.311.271,1.44,1.44,0,0,0-.219.278.528.528,0,0,0-.084.27.23.23,0,0,0,.119.2.939.939,0,0,0,.3.125,2.577,2.577,0,0,0,.392.064c.141.013.275.019.4.019s.237,0,.346-.013c.126-.011.226-.023.314-.035-.018-.1-.035-.214-.054-.347s-.036-.278-.055-.436l-.024-.215L68.3,7.021c-.009-.07-.017-.142-.025-.216-.02-.169-.041-.338-.063-.508C68.119,6.336,68.014,6.386,67.9,6.449ZM83.069,4.354,84.1,3.321l1.039,1.033L84.1,5.393Zm13.047-.135L97.15,3.186l1.039,1.033L97.15,5.258Zm-63.31-.514.92-.92.931.925-.92.925ZM30.761,3.7l.92-.925.931.931-.92.92Zm72.989-.4,1.034-1.033L105.823,3.3l-1.039,1.039Zm-25.112,0,1.033-1.033L80.71,3.3,79.672,4.343Zm-7.288,0,1.033-1.033L73.422,3.3,72.383,4.343ZM31.865,2.141l.843-.844.85.85-.844.844ZM118.2,1.686,122.08,0l.243.544-4.155,1.832Z" transform="translate(307.874 181.461)" fill="#fff"/>
    <path id="توضیحات:" d="M33.183,9.635h0l-.2-.839a5.686,5.686,0,0,0,1.2-.374,4.285,4.285,0,0,0,.908-.539,2.712,2.712,0,0,0,.6-.636,1.676,1.676,0,0,0,.268-.663h-.5c-.126,0-.27-.007-.427-.023a1.839,1.839,0,0,1-1.4-.617,1.226,1.226,0,0,1-.252-.581,2.089,2.089,0,0,1-.031-.348,3.036,3.036,0,0,1,.037-.42,2.465,2.465,0,0,1,.172-.578,2.412,2.412,0,0,1,.317-.558,1.657,1.657,0,0,1,.481-.417A1.118,1.118,0,0,1,34.9,2.9a1.534,1.534,0,0,1,1.135.556,2.617,2.617,0,0,1,.33.46,3.385,3.385,0,0,1,.252.551,3.921,3.921,0,0,1,.165.613,3.821,3.821,0,0,1,.07.651h1.078q.252,0,.491-.011a2.178,2.178,0,0,0,.444-.063,1.224,1.224,0,0,0,.361-.154.688.688,0,0,0,.243-.285.883.883,0,0,0,.066-.23,1.484,1.484,0,0,0,.013-.2c0-.038,0-.1-.009-.172a2.182,2.182,0,0,0-.056-.318,2.836,2.836,0,0,0-.139-.424l-.378-.931.774-.382s.013.032.039.089.06.133.1.229.087.206.137.332.1.261.139.4a4.886,4.886,0,0,1,.227,1.113c0,.047,0,.093,0,.14a1.729,1.729,0,0,1-.131.7,1.411,1.411,0,0,1-.346.491,1.717,1.717,0,0,1-.493.313,2.485,2.485,0,0,1-.611.166,4.884,4.884,0,0,1-.688.048h-1.33a3.3,3.3,0,0,1-.472,1.163,3.894,3.894,0,0,1-.827.906,4.484,4.484,0,0,1-1.077.635,5.375,5.375,0,0,1-1.228.349Zm1.478-5.782a1,1,0,0,0-.2.251,1.744,1.744,0,0,0-.149.34,2.015,2.015,0,0,0-.082.373,1.507,1.507,0,0,0-.014.2,1.542,1.542,0,0,0,.014.194.439.439,0,0,0,.089.207.515.515,0,0,0,.164.14,1,1,0,0,0,.209.087,1.71,1.71,0,0,0,.217.048c.067.009.131.017.185.02.145.009.282.013.408.013l.18,0c.1,0,.2-.007.311-.016a3.427,3.427,0,0,0-.064-.526,2.909,2.909,0,0,0-.136-.461,2.549,2.549,0,0,0-.185-.384,2.2,2.2,0,0,0-.211-.3c-.029-.029-.062-.06-.1-.094a.86.86,0,0,0-.118-.09.71.71,0,0,0-.131-.068.433.433,0,0,0-.149-.026A.37.37,0,0,0,34.661,3.854ZM22.383,8l.7-.7.713.709-.7.708ZM20.6,8l.7-.709L22.018,8l-.7.7ZM.143,6.982A.517.517,0,0,1,0,6.6a.567.567,0,0,1,.143-.4.567.567,0,0,1,.431-.161.6.6,0,0,1,.439.161.558.558,0,0,1,.148.4.518.518,0,0,1-.148.383.6.6,0,0,1-.439.157A.575.575,0,0,1,.143,6.982Zm27.6-.328a2.963,2.963,0,0,1-.65-.095,1.785,1.785,0,0,1-.547-.246,2.164,2.164,0,0,1-.493-.475,1.624,1.624,0,0,1-.7.561,2.656,2.656,0,0,1-.976.182h-.174v0a1.513,1.513,0,0,1-.643-.149,1.428,1.428,0,0,1-.479-.389,1.758,1.758,0,0,1-.3.237,1.6,1.6,0,0,1-.392.17,2.957,2.957,0,0,1-.528.1,6.772,6.772,0,0,1-.711.032H20.5a3.8,3.8,0,0,1-.722-.079,2.749,2.749,0,0,1-.672-.233A1.976,1.976,0,0,1,18.6,5.9a1.485,1.485,0,0,1-.324-.5c-.3.148-.61.292-.934.433a10.154,10.154,0,0,1-1.029.378,8.783,8.783,0,0,1-1.146.269,7.651,7.651,0,0,1-1.282.1h-.626a2.471,2.471,0,0,1-.728-.112,1.439,1.439,0,0,1-.571-.347,1.07,1.07,0,0,1-.22-.309,1.735,1.735,0,0,1-.113-.326,1.6,1.6,0,0,1-.04-.307c0-.1,0-.18,0-.25,0-.023,0-.092,0-.206s0-.262.006-.442c0-.12,0-.251,0-.394V3.665c0-.229,0-.471,0-.725s0-.509-.008-.778-.015-.53-.029-.783S11.521.894,11.5.68s-.041-.388-.067-.524L12.287,0c.026.148.049.329.068.544s.035.447.048.7.023.515.031.788.011.542.011.8V5.017a2.412,2.412,0,0,0,.015.276.358.358,0,0,0,.115.223.668.668,0,0,0,.3.157,1.722,1.722,0,0,0,.472.057h.539a6.683,6.683,0,0,0,1.239-.111,8.424,8.424,0,0,0,1.129-.293A10.481,10.481,0,0,0,17.3,4.909q.509-.235,1-.482-.3-.1-.574-.226c-.182-.082-.362-.164-.539-.248l-.4-.184c-.129-.059-.253-.112-.374-.158a3.117,3.117,0,0,0-.341-.112,1.22,1.22,0,0,0-.3-.04.768.768,0,0,0-.339.078,1.352,1.352,0,0,0-.3.2,1.936,1.936,0,0,0-.246.257c-.073.092-.135.177-.187.257s-.092.147-.12.2a.8.8,0,0,0-.041.085l-.782-.352c0-.006.014-.031.037-.076s.053-.1.1-.172.093-.149.152-.239a3.024,3.024,0,0,1,.206-.274,2.465,2.465,0,0,1,.72-.613,1.676,1.676,0,0,1,.8-.2,1.968,1.968,0,0,1,.424.048,3.372,3.372,0,0,1,.437.129c.148.053.3.115.452.184s.309.14.465.213.345.16.519.238.352.148.528.211a4.34,4.34,0,0,0,.531.149,2.544,2.544,0,0,0,.535.057l.165.826-.4.174q-.2.088-.4.187a.659.659,0,0,0,.159.28,1.066,1.066,0,0,0,.257.2,1.453,1.453,0,0,0,.309.126,3.11,3.11,0,0,0,.319.072,2.62,2.62,0,0,0,.287.032c.086,0,.156.006.208.006h.565a3.321,3.321,0,0,0,.707-.065,1.326,1.326,0,0,0,.479-.2.784.784,0,0,0,.272-.326,1.122,1.122,0,0,0,.086-.456,3.457,3.457,0,0,0-.037-.5,4.331,4.331,0,0,0-.132-.587l.817-.23c.029.1.054.2.074.293s.038.193.052.3.029.218.041.339.025.259.037.413a3.333,3.333,0,0,0,.048.339,1.217,1.217,0,0,0,.115.33.712.712,0,0,0,.222.252.613.613,0,0,0,.363.1h.014a2.036,2.036,0,0,0,.438-.041,1.5,1.5,0,0,0,.308-.1.8.8,0,0,0,.2-.132,1.13,1.13,0,0,0,.124-.138,1.425,1.425,0,0,0,.226-.491c.052-.2.1-.4.144-.614.026-.135.052-.264.073-.36.031-.133.062-.241.1-.344l.821.247c-.036.125-.068.256-.1.392a2.216,2.216,0,0,0-.043.439v.03a1.825,1.825,0,0,0,.052.43,1.24,1.24,0,0,0,.2.426,6.613,6.613,0,0,1,.521-.911,4.9,4.9,0,0,1,.665-.781,4.154,4.154,0,0,1,.82-.6,3.667,3.667,0,0,1,.989-.374,2.187,2.187,0,0,1,.49-.058c.035,0,.108,0,.222.012a1.719,1.719,0,0,1,.431.1,1.944,1.944,0,0,1,.482.248,1.668,1.668,0,0,1,.383.372,1.7,1.7,0,0,1,.247.484,1.781,1.781,0,0,1,.069.5v.081a1.808,1.808,0,0,1-.672,1.4,2.375,2.375,0,0,1-.658.379,4.434,4.434,0,0,1-.768.218,6.123,6.123,0,0,1-.795.1c-.283.016-.526.023-.742.023C28.25,6.669,27.984,6.665,27.746,6.655ZM30,3.643a2.574,2.574,0,0,0-.695.263,3.022,3.022,0,0,0-.6.448,4.382,4.382,0,0,0-.532.621,8.222,8.222,0,0,0-.491.789c.179.011.4.02.674.026h.191c.2,0,.415-.007.651-.022a6,6,0,0,0,.748-.095,2.961,2.961,0,0,0,.7-.222,1.386,1.386,0,0,0,.5-.382.887.887,0,0,0,.184-.566V4.487a.777.777,0,0,0-.068-.338.8.8,0,0,0-.174-.247.812.812,0,0,0-.246-.165,1.342,1.342,0,0,0-.558-.123h-.016A1.219,1.219,0,0,0,30,3.643ZM6.2,6.583a7.577,7.577,0,0,1-2.5-.361,2.143,2.143,0,0,1-1.218-1A1.642,1.642,0,0,1,2.3,4.461,2.422,2.422,0,0,1,2.47,3.6c.041-.1.082-.2.124-.287s.082-.162.119-.226.07-.115.1-.155.041-.063.048-.071l.691.513c-.029.043-.056.086-.08.126s-.049.082-.072.124-.046.086-.067.134-.042.1-.063.163a1.563,1.563,0,0,0-.1.526.847.847,0,0,0,.087.387,1.493,1.493,0,0,0,.974.654A7.141,7.141,0,0,0,6.2,5.721c.229,0,.482-.009.756-.028s.557-.053.844-.1a7.128,7.128,0,0,0,.854-.2,3.937,3.937,0,0,0,.789-.333,2.008,2.008,0,0,0-.085-.41A4.429,4.429,0,0,0,9.2,4.222q-.089-.209-.19-.4c-.067-.126-.128-.238-.184-.335s-.1-.175-.143-.235-.06-.091-.063-.094l.722-.47q.008.018.111.181c.068.109.147.249.237.421s.181.367.272.583a4.11,4.11,0,0,1,.215.659,2.891,2.891,0,0,1,.069.4.862.862,0,0,1,0,.1.844.844,0,0,1-.037.243.694.694,0,0,1-.148.255,1.426,1.426,0,0,1-.315.258,3.164,3.164,0,0,1-.456.23,5.521,5.521,0,0,1-.562.2q-.3.089-.628.161t-.659.12q-.329.047-.647.069c-.183.014-.357.022-.522.022ZM.148,3.465A.517.517,0,0,1,0,3.082a.566.566,0,0,1,.143-.4.565.565,0,0,1,.431-.161.584.584,0,0,1,.438.161.554.554,0,0,1,.148.4.507.507,0,0,1-.148.383.6.6,0,0,1-.438.157A.583.583,0,0,1,.148,3.465ZM6.457,2.309l.7-.7.713.708-.7.708Zm-1.783,0,.7-.708.713.713-.7.7ZM29.726,1.118l.708-.709.714.713-.709.709ZM39.3,1.083l.7-.7.714.709-.7.708Zm-1.783,0,.7-.708.713.713-.7.7Z" transform="translate(390.157 166.973)" fill="#fff"/>
    <g id="Group_3" data-name="Group 3" transform="translate(23.333 232)">
      <g transform="matrix(1, 0, 0, 1, -99.83, -291.5)" filter="url(#Combined_Shape)">
        <rect id="Combined_Shape-4" data-name="Combined Shape" width="229.444" height="32.667" rx="3.889" transform="translate(99.83 291.5)" fill="#2ecc71"/>
      </g>
      <path id="پرداخت" d="M34.893,12.119l.806-.806.8.8-.806.806Zm-6.347-.541q.39-.2.774-.441a7.249,7.249,0,0,0,.725-.517,6.26,6.26,0,0,0,.627-.581,3.667,3.667,0,0,0,.484-.641,2.816,2.816,0,0,0,.3-.7,2.022,2.022,0,0,0,.07-.53,1.744,1.744,0,0,0-.011-.2c-.025-.205-.064-.427-.116-.662s-.11-.468-.171-.7-.122-.441-.184-.641-.114-.367-.157-.5L31.9,5.156q.205.628.4,1.069a3.874,3.874,0,0,0,.4.719,1.465,1.465,0,0,0,.43.409.975.975,0,0,0,.495.13h.931c.21,0,.413,0,.612-.014a2.735,2.735,0,0,0,.552-.078A1.491,1.491,0,0,0,36.17,7.2a.856.856,0,0,0,.3-.355,1.045,1.045,0,0,0,.081-.287,1.721,1.721,0,0,0,.016-.243c0-.047,0-.118-.011-.214a2.748,2.748,0,0,0-.07-.4,3.564,3.564,0,0,0-.174-.527L35.845,4.02l.963-.476s.016.04.049.111.076.165.128.284.109.257.17.413.119.324.173.5a6.008,6.008,0,0,1,.282,1.385q.005.086.005.173a2.16,2.16,0,0,1-.162.866,1.79,1.79,0,0,1-.43.611,2.132,2.132,0,0,1-.615.39,3.115,3.115,0,0,1-.76.206,6.035,6.035,0,0,1-.858.059H33.513v0l-.086,0a1.275,1.275,0,0,1-.263-.043,1.358,1.358,0,0,1-.292-.12,1.125,1.125,0,0,1-.284-.227V8.17a3.133,3.133,0,0,1-.3,1.353,4.883,4.883,0,0,1-.8,1.2,7.086,7.086,0,0,1-1.145,1.015,9.9,9.9,0,0,1-1.326.8Zm5.064-1.087L34.5,9.6l.877.882-.887.887Zm2.365-.005.887-.887.877.877-.887.887ZM21.209,8.533q.086-1.212.114-2.218.011-.455.011-.871,0-.5-.016-.952-.109-2.624-.292-4.329L22.086,0q.234,2.2.276,3.939.016.9.016,1.688,0,.477-.014,1.272t-.089,1.694ZM1.923,8.168a2.83,2.83,0,0,1-1.566-1.2,2.444,2.444,0,0,1-.241-.546,2.69,2.69,0,0,1-.105-.562C0,5.761,0,5.668,0,5.578s.005-.2.016-.338A2.548,2.548,0,0,1,.1,4.793,6.234,6.234,0,0,1,.36,3.98a3.285,3.285,0,0,1,.154-.338l.936.514s-.016.04-.049.108-.068.159-.108.271-.078.241-.116.39a2.214,2.214,0,0,0-.068.465q-.005.065-.005.135a2.359,2.359,0,0,0,.038.4,1.336,1.336,0,0,0,.174.446,1.989,1.989,0,0,0,1.16.833,7.194,7.194,0,0,0,2.173.281,8.581,8.581,0,0,0,2.035-.208,3.51,3.51,0,0,0,1.4-.663,2.4,2.4,0,0,0,.427-.427A3.087,3.087,0,0,0,8.811,5.7a4.019,4.019,0,0,0,.217-.5q.089-.254.159-.5l1.028.282q-.027.1-.062.24c-.023.1-.044.194-.062.293s-.032.2-.043.29a1.549,1.549,0,0,0-.016.205v.043a2.68,2.68,0,0,0,.07.487A1.07,1.07,0,0,0,10.329,7a1.52,1.52,0,0,0,1.26.487h1.1a7.64,7.64,0,0,0,1.439-.138,11.535,11.535,0,0,0,1.418-.365,14.521,14.521,0,0,0,1.363-.519q.666-.292,1.282-.6c-.249-.086-.487-.181-.715-.282s-.451-.2-.67-.308l-.5-.23q-.242-.111-.465-.2a3.737,3.737,0,0,0-.425-.139,1.5,1.5,0,0,0-.368-.051.955.955,0,0,0-.422.1A1.716,1.716,0,0,0,14.26,5a2.436,2.436,0,0,0-.306.319q-.135.17-.232.319c-.065.1-.114.183-.148.249a1.146,1.146,0,0,0-.051.105l-.975-.438.046-.094c.028-.056.068-.127.12-.214s.115-.185.189-.3a3.687,3.687,0,0,1,.257-.341,3.065,3.065,0,0,1,.9-.763,2.08,2.08,0,0,1,1-.254,2.43,2.43,0,0,1,.527.059,4.388,4.388,0,0,1,.544.159c.184.067.372.144.563.23s.384.175.58.265c.212.1.428.2.646.3s.437.185.658.263a5.28,5.28,0,0,0,.66.186,3.186,3.186,0,0,0,.665.07L20.1,6.146q-.379.158-.752.338t-.778.382q-.6.3-1.28.595A15.211,15.211,0,0,1,15.856,8a12.77,12.77,0,0,1-1.551.392,8.62,8.62,0,0,1-1.617.152H11.514a2.485,2.485,0,0,1-2.023-.886,1.931,1.931,0,0,1-.336-.59A5.988,5.988,0,0,1,4.648,8.56,8.467,8.467,0,0,1,1.923,8.168Zm23.521.308a6.574,6.574,0,0,1-.707-.165,5.736,5.736,0,0,1-.643-.227,1.542,1.542,0,0,1-.427-.249l.444-1.017a3.25,3.25,0,0,0,.482.251,4.566,4.566,0,0,0,.6.212,4.6,4.6,0,0,0,.66.132,3.126,3.126,0,0,0,.406.027c.083,0,.2-.006.341-.019a1.743,1.743,0,0,0,.487-.127,1.111,1.111,0,0,0,.455-.33.447.447,0,0,0,.081-.292,1.579,1.579,0,0,0-.043-.336,2.806,2.806,0,0,0-.192-.554,4.635,4.635,0,0,0-.319-.58,5.743,5.743,0,0,0-.414-.562,6.44,6.44,0,0,0-.473-.511,4.612,4.612,0,0,0-.5-.422,2.849,2.849,0,0,0-.5-.293l.438-.985a3.863,3.863,0,0,1,.641.379,6.2,6.2,0,0,1,.631.525,7.009,7.009,0,0,1,.587.631,7.171,7.171,0,0,1,.508.7,5.741,5.741,0,0,1,.4.725,3.933,3.933,0,0,1,.246.706,2.459,2.459,0,0,1,.063.546,2.054,2.054,0,0,1-.046.433,1.338,1.338,0,0,1-.12.33,1.434,1.434,0,0,1-.162.244,2.005,2.005,0,0,1-.457.409,2.7,2.7,0,0,1-.565.278,3.406,3.406,0,0,1-.631.158,4.429,4.429,0,0,1-.652.049A3.535,3.535,0,0,1,25.444,8.475ZM5.33,3.225l.877-.877.887.882-.876.882ZM3.111,3.219l.877-.882.887.887L4,4.1ZM14.127,1.7l.882-.882L15.9,1.7l-.882.882Z" transform="translate(96.576 9.901)" fill="#fff"/>
    </g>
    <path id="_۱۰۰_۰۰۰" data-name="۱۰۰،۰۰۰" d="M.871,7.291q0-.606-.007-1.233T.829,4.817Q.8,4.2.746,3.613T.594,2.483A8.9,8.9,0,0,0,.353,1.472,4.617,4.617,0,0,0,0,.616L1,0a3.7,3.7,0,0,1,.362.726,7.484,7.484,0,0,1,.249.824q.1.433.175.9t.138.959q.047.369.076.8t.045.881q.016.447.022.883,0,.29,0,.555v.756Zm12.446-.228a1.011,1.011,0,0,1-.329-.265,1.128,1.128,0,0,1-.2-.389,1.554,1.554,0,0,1-.069-.464A2.565,2.565,0,0,1,13.99,3.858c.031.022.076.056.133.1L14.3,4.1l.187.152c.062.05.114.091.158.123a2.292,2.292,0,0,0-.96,1.107c.038-.006.077-.011.118-.014s.088-.005.142-.005a.837.837,0,0,1,.771.858.684.684,0,0,1-.083.333.919.919,0,0,1-.218.268,1.031,1.031,0,0,1-.305.177.982.982,0,0,1-.346.064A.972.972,0,0,1,13.317,7.063ZM26.152,6.029a1.737,1.737,0,0,1-.542-.365,1.709,1.709,0,0,1-.365-.541,1.7,1.7,0,0,1,0-1.331,1.783,1.783,0,0,1,.365-.545,1.7,1.7,0,0,1,1.873-.371,1.762,1.762,0,0,1,.545.371,1.692,1.692,0,0,1,.37.545,1.7,1.7,0,0,1,0,1.331,1.639,1.639,0,0,1-.37.541,1.78,1.78,0,0,1-.545.365,1.7,1.7,0,0,1-1.331,0Zm.367-2.289a.762.762,0,0,0-.244.167.835.835,0,0,0-.165.246.753.753,0,0,0,0,.6A.774.774,0,0,0,26.276,5a.8.8,0,0,0,.244.166.712.712,0,0,0,.3.061.728.728,0,0,0,.3-.061.809.809,0,0,0,.414-.409.784.784,0,0,0,0-.6.83.83,0,0,0-.169-.246.784.784,0,0,0-.245-.167.741.741,0,0,0-.3-.062A.725.725,0,0,0,26.519,3.74ZM21.465,6.029a1.709,1.709,0,0,1-.906-.906,1.708,1.708,0,0,1,0-1.331,1.783,1.783,0,0,1,.365-.545A1.7,1.7,0,0,1,22.8,2.875a1.762,1.762,0,0,1,.545.371,1.694,1.694,0,0,1,.371.545,1.708,1.708,0,0,1,0,1.331,1.655,1.655,0,0,1-.371.541,1.78,1.78,0,0,1-.545.365,1.666,1.666,0,0,1-.663.136A1.685,1.685,0,0,1,21.465,6.029Zm.367-2.289a.762.762,0,0,0-.244.167.835.835,0,0,0-.165.246.753.753,0,0,0,0,.6A.789.789,0,0,0,21.588,5a.812.812,0,0,0,.244.166.712.712,0,0,0,.3.061.725.725,0,0,0,.3-.061A.794.794,0,0,0,22.679,5a.774.774,0,0,0,.169-.243.773.773,0,0,0,0-.6.814.814,0,0,0-.169-.246.784.784,0,0,0-.245-.167.741.741,0,0,0-.3-.062A.728.728,0,0,0,21.832,3.74ZM16.778,6.029a1.709,1.709,0,0,1-.906-.906,1.708,1.708,0,0,1,0-1.331,1.783,1.783,0,0,1,.365-.545,1.7,1.7,0,0,1,1.874-.371,1.784,1.784,0,0,1,.545.371,1.706,1.706,0,0,1,.37.545,1.69,1.69,0,0,1-.37,1.872,1.78,1.78,0,0,1-.545.365,1.7,1.7,0,0,1-1.332,0Zm.368-2.289a.765.765,0,0,0-.245.167.835.835,0,0,0-.165.246.753.753,0,0,0,0,.6A.789.789,0,0,0,16.9,5a.8.8,0,0,0,.245.166.708.708,0,0,0,.3.061.725.725,0,0,0,.3-.061A.794.794,0,0,0,17.992,5a.774.774,0,0,0,.169-.243.773.773,0,0,0,0-.6.814.814,0,0,0-.169-.246.774.774,0,0,0-.245-.167.741.741,0,0,0-.3-.062A.723.723,0,0,0,17.146,3.74ZM9.108,6.029A1.717,1.717,0,0,1,8.2,5.123a1.708,1.708,0,0,1,0-1.331,1.785,1.785,0,0,1,.365-.545,1.7,1.7,0,0,1,1.873-.371,1.762,1.762,0,0,1,.545.371,1.692,1.692,0,0,1,.37.545,1.708,1.708,0,0,1,0,1.331,1.639,1.639,0,0,1-.37.541,1.78,1.78,0,0,1-.545.365,1.7,1.7,0,0,1-1.332,0ZM9.476,3.74a.752.752,0,0,0-.244.167.856.856,0,0,0-.166.246.763.763,0,0,0,0,.6A.776.776,0,0,0,9.232,5a.8.8,0,0,0,.244.166.712.712,0,0,0,.3.061.721.721,0,0,0,.3-.061A.788.788,0,0,0,10.323,5a.772.772,0,0,0,.168-.243.773.773,0,0,0,0-.6.811.811,0,0,0-.168-.246.778.778,0,0,0-.246-.167.734.734,0,0,0-.3-.062A.725.725,0,0,0,9.476,3.74ZM4.422,6.029a1.737,1.737,0,0,1-.542-.365,1.709,1.709,0,0,1-.364-.541,1.7,1.7,0,0,1,0-1.331,1.783,1.783,0,0,1,.364-.545,1.7,1.7,0,0,1,1.873-.371,1.762,1.762,0,0,1,.545.371,1.692,1.692,0,0,1,.37.545,1.7,1.7,0,0,1,0,1.331,1.639,1.639,0,0,1-.37.541,1.78,1.78,0,0,1-.545.365,1.7,1.7,0,0,1-1.331,0ZM4.789,3.74a.762.762,0,0,0-.244.167.835.835,0,0,0-.165.246.753.753,0,0,0,0,.6A.773.773,0,0,0,4.545,5a.8.8,0,0,0,.244.166.712.712,0,0,0,.3.061.725.725,0,0,0,.3-.061.809.809,0,0,0,.414-.409.784.784,0,0,0,0-.6.814.814,0,0,0-.169-.246.784.784,0,0,0-.245-.167.741.741,0,0,0-.3-.062A.725.725,0,0,0,4.789,3.74Z" transform="translate(154.137 73.308)" fill="#5a627a"/>
    <path id="نامپرداختکننده" d="M55.262,10.856l.7-.706.7.7-.706.7Zm-5.554-.473c.228-.117.453-.246.677-.386a6.43,6.43,0,0,0,.634-.452,5.522,5.522,0,0,0,.55-.509,3.217,3.217,0,0,0,.423-.561,2.449,2.449,0,0,0,.258-.611,1.748,1.748,0,0,0,.061-.464,1.523,1.523,0,0,0-.009-.175c-.022-.18-.056-.373-.1-.58s-.1-.41-.149-.608-.107-.386-.161-.561-.1-.321-.137-.438l.89-.274q.18.549.35.935a3.316,3.316,0,0,0,.35.629,1.291,1.291,0,0,0,.376.358.853.853,0,0,0,.434.113h.814c.184,0,.362,0,.535-.012a2.4,2.4,0,0,0,.482-.069,1.307,1.307,0,0,0,.393-.167.755.755,0,0,0,.266-.31.933.933,0,0,0,.071-.251,1.571,1.571,0,0,0,.014-.212c0-.041,0-.1-.009-.187a2.343,2.343,0,0,0-.062-.346,2.991,2.991,0,0,0-.151-.462l-.412-1.013.843-.417s.014.036.042.1.066.145.112.248.1.225.148.363.1.283.152.437a5.257,5.257,0,0,1,.246,1.212q.005.076.005.151a1.891,1.891,0,0,1-.142.758,1.564,1.564,0,0,1-.376.535,1.889,1.889,0,0,1-.537.341,2.7,2.7,0,0,1-.666.18,5.206,5.206,0,0,1-.75.052H54.054v0l-.076,0a1.169,1.169,0,0,1-.229-.038,1.186,1.186,0,0,1-.256-.1.966.966,0,0,1-.248-.2V7.4a2.739,2.739,0,0,1-.265,1.184,4.28,4.28,0,0,1-.7,1.049,6.117,6.117,0,0,1-1,.887,8.6,8.6,0,0,1-1.159.7Zm12.155.806h-.927L60.761,6.8c0-.011,0-.027,0-.051V6.666a.958.958,0,0,1,.036-.236,1.153,1.153,0,0,1,.112-.28.8.8,0,0,1,.232-.26,1.041,1.041,0,0,1,.148-.093.787.787,0,0,1,.2-.068,1.073,1.073,0,0,1,.2-.015l.112,0a1.224,1.224,0,0,1,.254.051c.056-.157.117-.31.18-.45a4.476,4.476,0,0,1,.233-.464,4.16,4.16,0,0,1,.289-.433,2.035,2.035,0,0,1,.351-.357,1.647,1.647,0,0,1,.414-.241,1.131,1.131,0,0,1,.421-.077H64a1.7,1.7,0,0,1,.7.168,1.511,1.511,0,0,1,.54.452,1.8,1.8,0,0,1,.272.521,2.634,2.634,0,0,1,.131.625c.006.083.01.17.01.26a3.477,3.477,0,0,1-.036.462,2.068,2.068,0,0,1-.16.544,1.688,1.688,0,0,1-.334.5,1.162,1.162,0,0,1-.507.3.839.839,0,0,1-.122.009,1.593,1.593,0,0,1-.206-.018,2.5,2.5,0,0,1-.335-.083c-.14-.043-.3-.1-.472-.166-.189-.073-.386-.151-.6-.239l-1.165-.43s0,0,0,.008a.145.145,0,0,1,0,.018c0,.013,0,.038,0,.073s0,.085,0,.148v.034c0,.078.008.192.012.337s.011.324.019.542l.007.207.007.209c0,.119.01.247.014.384q.011.308.024.686l.005.133.011.292q.02.559.049,1.27l.008.2v0Zm1.733-6.3a2.675,2.675,0,0,0-.4.593,3.346,3.346,0,0,0-.148.316c-.04.095-.077.193-.115.29l.3.124c.158.068.3.125.423.173l.386.144a3.021,3.021,0,0,0,.329.1c.094.023.159.039.183.043a1.1,1.1,0,0,0,.115-.283,2.2,2.2,0,0,0,.063-.357,1.86,1.86,0,0,0,.016-.247c0-.037,0-.094-.011-.183a1.188,1.188,0,0,0-.052-.257,1.15,1.15,0,0,0-.172-.375.833.833,0,0,0-.206-.2.529.529,0,0,0-.2-.08,1.035,1.035,0,0,0-.155-.014A.538.538,0,0,0,63.6,4.889ZM54.139,9.431l.777-.777.767.771-.777.777Zm2.069-.005.776-.776.768.767-.777.776ZM43.288,7.717q.076-1.06.1-1.94.009-.4.009-.762,0-.44-.014-.833-.094-2.3-.256-3.787l.928-.142q.2,1.922.242,3.446.014.786.014,1.478,0,.416-.012,1.112t-.077,1.481ZM26.413,7.4a2.474,2.474,0,0,1-1.371-1.053,2.114,2.114,0,0,1-.211-.478,2.321,2.321,0,0,1-.093-.493c-.006-.082-.009-.162-.009-.241s0-.177.014-.3a2.181,2.181,0,0,1,.07-.391,5.378,5.378,0,0,1,.23-.712,3.076,3.076,0,0,1,.134-.3l.819.45a1.017,1.017,0,0,1-.042.095c-.028.06-.059.139-.095.237s-.068.212-.1.341a1.97,1.97,0,0,0-.059.407c0,.038,0,.077,0,.119a2.019,2.019,0,0,0,.033.347,1.13,1.13,0,0,0,.151.391,1.742,1.742,0,0,0,1.015.729,6.289,6.289,0,0,0,1.9.247,7.485,7.485,0,0,0,1.78-.183,3.066,3.066,0,0,0,1.221-.58,2.076,2.076,0,0,0,.374-.374,2.629,2.629,0,0,0,.267-.421,3.472,3.472,0,0,0,.19-.44q.077-.223.139-.436l.9.247q-.023.085-.054.211c-.021.084-.039.168-.055.256s-.028.171-.038.253a1.448,1.448,0,0,0-.014.18v.038a2.325,2.325,0,0,0,.062.427.936.936,0,0,0,.2.4,1.33,1.33,0,0,0,1.1.427h.961a6.7,6.7,0,0,0,1.259-.121,10.374,10.374,0,0,0,1.241-.319q.61-.2,1.193-.454t1.122-.526c-.218-.076-.426-.158-.625-.247s-.4-.178-.588-.27L39,4.661q-.211-.1-.407-.173a3.4,3.4,0,0,0-.372-.121,1.276,1.276,0,0,0-.322-.045.831.831,0,0,0-.369.085,1.458,1.458,0,0,0-.325.216,2.167,2.167,0,0,0-.267.279c-.079.1-.147.193-.2.279s-.1.16-.131.218a1.025,1.025,0,0,0-.045.093l-.852-.383c0-.006.017-.034.041-.083s.058-.112.1-.187.1-.163.166-.26a3.245,3.245,0,0,1,.225-.3,2.682,2.682,0,0,1,.783-.667,1.821,1.821,0,0,1,.874-.223,2.162,2.162,0,0,1,.462.052,4.09,4.09,0,0,1,.476.139c.16.059.325.126.492.2s.336.153.506.232q.279.132.566.26t.575.229a4.633,4.633,0,0,0,.578.164,2.825,2.825,0,0,0,.582.061l.18.9c-.221.091-.44.19-.658.3s-.446.217-.682.334q-.521.261-1.12.521T38.6,7.25a11.454,11.454,0,0,1-1.356.344,7.611,7.611,0,0,1-1.416.132H34.8a2.177,2.177,0,0,1-1.771-.776,1.7,1.7,0,0,1-.293-.516A5.242,5.242,0,0,1,28.8,7.741,7.368,7.368,0,0,1,26.413,7.4ZM1.9,7.727H1.885l-.078,0A2.139,2.139,0,0,1,1.575,7.7a2.566,2.566,0,0,1-.311-.068A1.9,1.9,0,0,1,.918,7.5a1.623,1.623,0,0,1-.687-.57A1.535,1.535,0,0,1,0,6.083,2.86,2.86,0,0,1,.771,4.3c.113-.131.211-.24.3-.331s.17-.17.255-.247c-.1-.092-.181-.159-.229-.2a.655.655,0,0,1-.086-.076l.6-.724a1.042,1.042,0,0,0,.1.091c.068.059.155.135.249.223s.218.205.347.332.269.275.4.419A5.993,5.993,0,0,1,3.57,5.023a2.426,2.426,0,0,1,.283,1.06,1.631,1.631,0,0,1-.216.848,1.464,1.464,0,0,1-.631.563,1.988,1.988,0,0,1-.308.122,2.646,2.646,0,0,1-.3.069,2.3,2.3,0,0,1-.268.034l-.052,0H2.048l-.065,0-.06,0ZM1.659,4.705a3.786,3.786,0,0,0-.343.418,2.977,2.977,0,0,0-.273.474,1.179,1.179,0,0,0-.111.486.88.88,0,0,0,.012.147A.414.414,0,0,0,1,6.379a.569.569,0,0,0,.115.144.735.735,0,0,0,.2.129A1.137,1.137,0,0,0,1.5,6.72a1.71,1.71,0,0,0,.175.041c.054.009.1.015.148.02l.034,0,.04,0h.077c.021,0,.045,0,.072,0a1.193,1.193,0,0,0,.165-.015c.054-.009.112-.021.191-.039a.964.964,0,0,0,.189-.067.629.629,0,0,0,.252-.229.68.68,0,0,0,.079-.349,1.654,1.654,0,0,0-.242-.752,4.824,4.824,0,0,0-.7-.937C1.9,4.465,1.8,4.561,1.659,4.705ZM69.173,7.727h-.189a2.7,2.7,0,0,1-.793-.122,1.568,1.568,0,0,1-.623-.379,1.145,1.145,0,0,1-.239-.336,1.8,1.8,0,0,1-.123-.356,1.665,1.665,0,0,1-.045-.334c0-.105,0-.2,0-.272,0-.025,0-.1,0-.225s0-.284.007-.481c0-.131,0-.274,0-.429V4.549c0-.249,0-.513,0-.79s0-.554-.009-.848-.017-.578-.032-.852-.032-.527-.051-.76S67.029.877,67,.729l.928-.17Q67.972.8,68,1.15c.02.234.038.488.051.762s.025.562.033.86.012.589.012.873V6.022a2.605,2.605,0,0,0,.017.3.394.394,0,0,0,.125.244.732.732,0,0,0,.325.17,1.861,1.861,0,0,0,.513.062h.455c.184,0,.352,0,.507-.012a1.791,1.791,0,0,0,.421-.069,1,1,0,0,0,.332-.167.866.866,0,0,0,.237-.31.9.9,0,0,0,.07-.251,1.432,1.432,0,0,0,.014-.212c0-.041,0-.1-.009-.187a2.344,2.344,0,0,0-.062-.346,2.992,2.992,0,0,0-.151-.462L70.48,3.768l.843-.417a.868.868,0,0,0,.042.1c.029.062.066.145.112.248s.1.225.148.363.1.283.152.437a5.306,5.306,0,0,1,.246,1.212c0,.05,0,.1,0,.151a1.891,1.891,0,0,1-.141.758,1.814,1.814,0,0,1-.348.535,1.63,1.63,0,0,1-.476.341,2.195,2.195,0,0,1-.6.18,4.656,4.656,0,0,1-.723.052Zm-52.115,0h-.189v0a1.652,1.652,0,0,1-.7-.162,1.562,1.562,0,0,1-.521-.423,1.814,1.814,0,0,1-.771.442,4.04,4.04,0,0,1-1.156.145h-.189v0a1.645,1.645,0,0,1-.7-.162,1.562,1.562,0,0,1-.521-.423,1.817,1.817,0,0,1-.772.442,4.03,4.03,0,0,1-1.155.145h-.19a2.634,2.634,0,0,1-.452-.048,1.93,1.93,0,0,1-.421-.135A1.431,1.431,0,0,1,9,7.34,1.626,1.626,0,0,1,8.763,7.1a3.488,3.488,0,0,1-.4.274,2.308,2.308,0,0,1-.43.2,2.86,2.86,0,0,1-.5.118,4.118,4.118,0,0,1-.607.04A2.349,2.349,0,0,1,5.792,7.5a3.1,3.1,0,0,1-.878-.646L5.45,6.1a2.741,2.741,0,0,0,.572.421,2.142,2.142,0,0,0,.573.218,1.692,1.692,0,0,0,.378.043c.06,0,.149-.005.268-.017a1.676,1.676,0,0,0,.433-.115,1.842,1.842,0,0,0,.4-.206A2.157,2.157,0,0,0,8.3,6.25l-1.5-3.6.862-.36q.227.554.414,1.008t.356.862l.331.8q.163.4.347.826c.064.152.124.29.183.415a1.2,1.2,0,0,0,.211.317.833.833,0,0,0,.308.2,1.268,1.268,0,0,0,.469.074h.08a1.863,1.863,0,0,0,1.156-.286,1.023,1.023,0,0,0,.359-.851,3.819,3.819,0,0,0-.04-.549,4.863,4.863,0,0,0-.145-.639l.89-.251c.031.111.058.217.081.319s.041.211.057.325.031.237.045.369.027.283.04.45a3.491,3.491,0,0,0,.052.369,1.294,1.294,0,0,0,.126.36.785.785,0,0,0,.241.274.666.666,0,0,0,.4.109h.081a1.858,1.858,0,0,0,1.155-.286,1.021,1.021,0,0,0,.36-.851,3.822,3.822,0,0,0-.04-.549,4.847,4.847,0,0,0-.144-.639l.89-.251c.031.111.059.217.08.319s.041.211.057.325.031.237.045.369.028.283.041.45a3.491,3.491,0,0,0,.052.369,1.292,1.292,0,0,0,.125.36.788.788,0,0,0,.242.274.666.666,0,0,0,.4.109h.5q.285,0,.592-.007a3.8,3.8,0,0,0,.587-.057,2.107,2.107,0,0,0,.511-.157.856.856,0,0,0,.365-.305,1.161,1.161,0,0,0,.184-.521c0-.041.005-.082.005-.122a1.923,1.923,0,0,0-.067-.479,1.747,1.747,0,0,0-.258-.494,6.672,6.672,0,0,0-.508-.644c-.2-.229-.427-.463-.678-.7s-.5-.464-.761-.672l.109-.97L21.433,0,21.8.861l-3.39,1.426q.232.2.507.445a7.576,7.576,0,0,1,.545.544,5.964,5.964,0,0,1,.592.76,4.008,4.008,0,0,1,.359.689,2.844,2.844,0,0,1,.171.616,2.422,2.422,0,0,1,.028.359q0,.1-.016.273a1.772,1.772,0,0,1-.09.391,2.4,2.4,0,0,1-.173.4,1.93,1.93,0,0,1-1.425.932,2.122,2.122,0,0,1-.412.033Zm29.935-.059a5.831,5.831,0,0,1-.617-.144,5.235,5.235,0,0,1-.563-.2,1.375,1.375,0,0,1-.374-.218l.389-.89a2.841,2.841,0,0,0,.421.22,4.094,4.094,0,0,0,.526.185,4.128,4.128,0,0,0,.578.115,2.638,2.638,0,0,0,.355.024c.073,0,.172-.005.3-.017a1.514,1.514,0,0,0,.426-.111.981.981,0,0,0,.4-.289.4.4,0,0,0,.071-.256,1.385,1.385,0,0,0-.038-.293,2.5,2.5,0,0,0-.168-.486,4.035,4.035,0,0,0-.279-.506,5.048,5.048,0,0,0-.363-.492,5.65,5.65,0,0,0-.414-.448,4.056,4.056,0,0,0-.438-.369,2.442,2.442,0,0,0-.436-.256l.383-.861a3.279,3.279,0,0,1,.562.331,5.561,5.561,0,0,1,.552.459,6.25,6.25,0,0,1,.513.552,6.111,6.111,0,0,1,.445.611,5.041,5.041,0,0,1,.346.634,3.4,3.4,0,0,1,.215.618,2.231,2.231,0,0,1,.055.478,1.818,1.818,0,0,1-.041.379,1.144,1.144,0,0,1-.1.289,1.273,1.273,0,0,1-.142.213,1.744,1.744,0,0,1-.4.357,2.367,2.367,0,0,1-.495.244,2.86,2.86,0,0,1-.552.137,3.815,3.815,0,0,1-.571.043A3.21,3.21,0,0,1,46.993,7.667Zm-17.6-4.594.767-.767.777.771-.767.772Zm-1.941,0L28.22,2.3,29,3.073l-.767.767ZM14.26,2.585l.772-.771.776.776-.771.772Zm-3.337,0,.771-.771.777.776-.772.772Zm58.8-.8.772-.771.777.776-.772.772ZM37.091,1.738l.772-.772.777.777-.772.771Z" transform="translate(169.677 113.051)" fill="#5a627a"/>
    <path id="شمارهموبایل" d="M33.82,10.259a7.762,7.762,0,0,0,.966-.571,5.42,5.42,0,0,0,.835-.707,3.509,3.509,0,0,0,.59-.814,1.915,1.915,0,0,0,.222-.89,2.335,2.335,0,0,0-.031-.369c-.021-.13-.047-.262-.078-.4s-.066-.272-.1-.407-.075-.269-.109-.4c-.077-.266-.157-.53-.242-.8l.9-.284q.066.223.132.438c.044.143.084.288.119.433s.076.3.115.457.076.3.109.454.061.3.083.443a2.773,2.773,0,0,1,.033.426,2.634,2.634,0,0,1-.121.8,3.473,3.473,0,0,1-.336.746,4.37,4.37,0,0,1-.511.687,6.334,6.334,0,0,1-.644.616,6.924,6.924,0,0,1-.734.532,8.149,8.149,0,0,1-.784.438Zm-16.07.768h0l-.219-.913a6.174,6.174,0,0,0,1.307-.406,4.779,4.779,0,0,0,.989-.588,2.984,2.984,0,0,0,.652-.695,1.813,1.813,0,0,0,.291-.722h-.537c-.138,0-.3-.007-.466-.023a2,2,0,0,1-1.519-.672,1.328,1.328,0,0,1-.274-.634,2.214,2.214,0,0,1-.034-.38,3.269,3.269,0,0,1,.041-.455,2.652,2.652,0,0,1,.187-.63,2.594,2.594,0,0,1,.346-.608,1.816,1.816,0,0,1,.523-.453,1.2,1.2,0,0,1,.585-.154,1.677,1.677,0,0,1,1.236.607,3,3,0,0,1,.36.5,3.676,3.676,0,0,1,.274.6,4.541,4.541,0,0,1,.18.668,4.444,4.444,0,0,1,.075.707H22.1a1.662,1.662,0,0,0,.7-.13,1.483,1.483,0,0,0,.475-.346,2.309,2.309,0,0,0,.34-.492c.1-.194.205-.4.292-.571s.174-.348.272-.524a2.451,2.451,0,0,1,.327-.458,1.529,1.529,0,0,1,.416-.327A1.135,1.135,0,0,1,25.47,3.8a1.408,1.408,0,0,1,.661.149,1.594,1.594,0,0,1,.489.391,1.938,1.938,0,0,1,.325.549,2.882,2.882,0,0,1,.167.625,2.192,2.192,0,0,1,.024.332,3.894,3.894,0,0,1-.028.4,2.076,2.076,0,0,1-.152.542,1.634,1.634,0,0,1-.337.516,1.126,1.126,0,0,1-.519.306,1.534,1.534,0,0,1-.389.051,2.532,2.532,0,0,1-.291-.023,2,2,0,0,1-.474-.131,3.351,3.351,0,0,1-.533-.26c-.171-.1-.329-.208-.472-.314a1.946,1.946,0,0,1-.386.4,1.644,1.644,0,0,1-.428.233,2.281,2.281,0,0,1-.483.108c-.142.016-.292.025-.449.027h-.52a3.638,3.638,0,0,1-.514,1.266,4.27,4.27,0,0,1-.9.988,5,5,0,0,1-1.175.691,5.854,5.854,0,0,1-1.336.379Zm1.608-6.295a1.083,1.083,0,0,0-.22.272,2.02,2.02,0,0,0-.164.372,2.26,2.26,0,0,0-.089.405,1.6,1.6,0,0,0-.014.212,1.527,1.527,0,0,0,.017.212.442.442,0,0,0,.1.224.547.547,0,0,0,.176.153,1.128,1.128,0,0,0,.228.095,1.568,1.568,0,0,0,.236.053c.087.012.148.018.2.021.143.009.288.014.445.014h.076l.124,0c.1,0,.215-.006.335-.015a3.613,3.613,0,0,0-.072-.573,3.346,3.346,0,0,0-.146-.5,2.909,2.909,0,0,0-.2-.418,2.281,2.281,0,0,0-.23-.325c-.031-.031-.067-.066-.106-.1a1.178,1.178,0,0,0-.129-.1.837.837,0,0,0-.144-.074.48.48,0,0,0-.161-.027A.392.392,0,0,0,19.358,4.732Zm5.935.061a.687.687,0,0,0-.167.168,2.547,2.547,0,0,0-.175.284c-.068.126-.139.261-.211.4l-.257.515a3.631,3.631,0,0,0,.786.46,1.17,1.17,0,0,0,.427.095.64.64,0,0,0,.165-.02.284.284,0,0,0,.157-.108.765.765,0,0,0,.13-.231,1.447,1.447,0,0,0,.079-.327,1.33,1.33,0,0,0,.009-.152,1.677,1.677,0,0,0-.019-.246,1.036,1.036,0,0,0-.024-.113c-.013-.052-.031-.113-.054-.181a1.444,1.444,0,0,0-.092-.205.993.993,0,0,0-.138-.2.691.691,0,0,0-.189-.144.536.536,0,0,0-.252-.057A.307.307,0,0,0,25.294,4.793ZM2.675,10.8A3.222,3.222,0,0,1,1.468,10.5,2.833,2.833,0,0,1,.9,10.139a2.361,2.361,0,0,1-.471-.514,2.409,2.409,0,0,1-.318-.681A2.737,2.737,0,0,1,0,8.129V8.091A5.65,5.65,0,0,1,.095,7.035a5.281,5.281,0,0,1,.2-.739,2.469,2.469,0,0,1,.284-.578l.847.379c-.044.069-.087.147-.13.229a2.1,2.1,0,0,0-.116.273,4.56,4.56,0,0,0-.173.623,4.2,4.2,0,0,0-.078.869,1.829,1.829,0,0,0,.083.566,1.637,1.637,0,0,0,.222.447,1.655,1.655,0,0,0,.322.336,2.015,2.015,0,0,0,.376.234,2.141,2.141,0,0,0,.386.142,1.836,1.836,0,0,0,.357.059c.041,0,.081,0,.119,0a2.77,2.77,0,0,0,.414-.035,2.285,2.285,0,0,0,.485-.135,2.241,2.241,0,0,0,.488-.266,1.834,1.834,0,0,0,.41-.4,2.012,2.012,0,0,0,.284-.554,2.256,2.256,0,0,0,.106-.717c0-.249,0-.544-.012-.885S4.951,6.179,4.94,5.79,4.916,5,4.9,4.59s-.031-.814-.047-1.205Q4.829,2.694,4.8,1.976T4.73.5L5.657.464q.038.761.068,1.484c.021.481.039.954.055,1.418q.023.582.045,1.186t.04,1.181a1.36,1.36,0,0,0,.064.386.993.993,0,0,0,.177.334.864.864,0,0,0,.3.234.957.957,0,0,0,.428.088h.819q.274,0,.535-.013a2.352,2.352,0,0,0,.483-.068,1.29,1.29,0,0,0,.392-.168.734.734,0,0,0,.266-.31A.943.943,0,0,0,9.4,5.965a1.59,1.59,0,0,0,.014-.213c0-.041,0-.1-.01-.186a2.443,2.443,0,0,0-.061-.346,3.034,3.034,0,0,0-.152-.462L8.778,3.745l.842-.417s.014.035.042.1.066.144.112.248.1.225.149.362.1.283.151.438a5.3,5.3,0,0,1,.247,1.212c0,.05,0,.1,0,.151a1.891,1.891,0,0,1-.142.758,1.573,1.573,0,0,1-.376.535,1.889,1.889,0,0,1-.537.341,2.743,2.743,0,0,1-.665.18,5.36,5.36,0,0,1-.751.052H6.737a2.031,2.031,0,0,1-.442-.054,1.559,1.559,0,0,1-.386-.154v.274a3.4,3.4,0,0,1-.151,1.058,2.859,2.859,0,0,1-.405.8,2.555,2.555,0,0,1-.582.575,3.26,3.26,0,0,1-1.413.563,3.634,3.634,0,0,1-.512.038C2.788,10.808,2.732,10.807,2.675,10.8Zm11.76-1.41.771-.772.777.777-.772.771ZM8.782,9.251l.767-.767.777.771-.767.771ZM6.841,9.246l.767-.771.777.777-.767.767ZM51.952,7.76A1.214,1.214,0,0,1,51.59,7.7a1.738,1.738,0,0,1-.347-.154,1.768,1.768,0,0,1-.308-.228,1.478,1.478,0,0,1-.242-.282,2.241,2.241,0,0,1-.644.526,1.582,1.582,0,0,1-.762.194,1.555,1.555,0,0,1-.362-.045,1.594,1.594,0,0,1-.358-.135,1.4,1.4,0,0,1-.31-.222.933.933,0,0,1-.215-.308,2.385,2.385,0,0,1-.3.272,1.808,1.808,0,0,1-.35.206,1.973,1.973,0,0,1-.419.13,2.557,2.557,0,0,1-.413.044h-.191v0a1.5,1.5,0,0,1-.545-.115,1.1,1.1,0,0,1-.454-.353,1.013,1.013,0,0,1-.827.451,1.535,1.535,0,0,1-.157-.009,4.081,4.081,0,0,1-1.832-.74,1.418,1.418,0,0,1-.4.384,2.126,2.126,0,0,1-1.174.381v0h-.189A2.694,2.694,0,0,1,40,7.58a1.572,1.572,0,0,1-.623-.379,1.169,1.169,0,0,1-.239-.337,1.785,1.785,0,0,1-.122-.355,1.674,1.674,0,0,1-.045-.334c0-.07,0-.134,0-.192V5.828c0-.038,0-.087,0-.149,0-.125,0-.285.007-.481s0-.42,0-.672,0-.513,0-.791,0-.553-.01-.847-.016-.578-.031-.852-.032-.528-.052-.76-.045-.422-.073-.571l.928-.171q.042.242.073.592c.021.233.038.488.052.762s.025.561.033.859.012.59.012.873V6a2.427,2.427,0,0,0,.017.3.392.392,0,0,0,.125.244.742.742,0,0,0,.324.17,1.872,1.872,0,0,0,.514.062h.005a1.485,1.485,0,0,0,1.174-.688,4.391,4.391,0,0,0,.346-.572l.091-.181.008-.015c.052-.1.1-.193.132-.266.049-.1.09-.18.121-.239l0-.006.01-.019.012-.022c.027-.053.044-.086.057-.105l.014-.022c.008-.014.015-.027.022-.038a1.871,1.871,0,0,1,.5-.571,1.155,1.155,0,0,1,.711-.22,1.377,1.377,0,0,1,.523.095,1.4,1.4,0,0,1,.419.26,1.71,1.71,0,0,1,.32.385,2.641,2.641,0,0,1,.226.466,2.735,2.735,0,0,1,.139.513,3.952,3.952,0,0,1,.054.515.905.905,0,0,0,.052.279.714.714,0,0,0,.132.232.621.621,0,0,0,.208.158.64.64,0,0,0,.281.06h.027a1.113,1.113,0,0,0,.5-.112,1.4,1.4,0,0,0,.4-.293,1.953,1.953,0,0,0,.3-.419,3.708,3.708,0,0,0,.222-.494q.094-.259.161-.518t.113-.493l.938.2c-.025.076-.056.174-.093.294s-.071.248-.106.385-.065.278-.09.421a2.331,2.331,0,0,0-.038.4,1.321,1.321,0,0,0,.023.248.667.667,0,0,0,.081.215.421.421,0,0,0,.156.152.5.5,0,0,0,.251.057.744.744,0,0,0,.433-.132,1.385,1.385,0,0,0,.341-.346,2.461,2.461,0,0,0,.26-.483,4.828,4.828,0,0,0,.19-.549q.078-.279.128-.542c.033-.175.059-.328.078-.457l.909.166-.024.151c-.019.1-.04.229-.064.377s-.045.3-.064.468a3.94,3.94,0,0,0-.028.443,1.985,1.985,0,0,0,.026.334,1.016,1.016,0,0,0,.085.279.575.575,0,0,0,.157.2.444.444,0,0,0,.239.093,1.611,1.611,0,0,0,.17.009,1.067,1.067,0,0,0,.272-.035.524.524,0,0,0,.242-.144.635.635,0,0,0,.154-.275A1.359,1.359,0,0,0,52.837,6a2.569,2.569,0,0,0-.073-.582c-.049-.209-.107-.413-.175-.613s-.139-.387-.213-.559-.136-.309-.186-.409l.828-.436c.016.032.046.092.09.182s.095.2.151.332.115.279.176.445.116.338.168.518a5.231,5.231,0,0,1,.128.554,3.185,3.185,0,0,1,.05.554,2.249,2.249,0,0,1-.113.736,1.439,1.439,0,0,1-.909.916,2.217,2.217,0,0,1-.772.123Zm-8.4-2.486-.117.241-.06.125-.049.1-.073.146-.058.119c-.014.031-.027.057-.038.077l-.013.026-.01.022c-.007.013-.013.024-.017.034l0,.006-.005.013a4.877,4.877,0,0,0,.645.378,2.416,2.416,0,0,0,.523.185,1.016,1.016,0,0,0,.157.014.43.43,0,0,0,.383-.18.665.665,0,0,0,.1-.227,1.03,1.03,0,0,0,.023-.232V6.045a2.344,2.344,0,0,0-.063-.458,1.621,1.621,0,0,0-.157-.419.948.948,0,0,0-.258-.307.6.6,0,0,0-.369-.117C43.924,4.744,43.741,4.922,43.548,5.274ZM32.018,7.7h-.095a2.173,2.173,0,0,1-.231-.025,2.611,2.611,0,0,1-.31-.068,1.965,1.965,0,0,1-.346-.132,1.611,1.611,0,0,1-.687-.57,1.52,1.52,0,0,1-.232-.845,2.856,2.856,0,0,1,.771-1.786c.113-.132.212-.241.3-.331s.185-.184.254-.246c-.08-.073-.158-.142-.228-.2a1.1,1.1,0,0,1-.085-.076l.6-.725a1.2,1.2,0,0,0,.1.089c.068.057.151.132.25.223s.227.215.347.333.258.263.4.419A5.9,5.9,0,0,1,33.688,5a2.42,2.42,0,0,1,.284,1.061,1.63,1.63,0,0,1-.215.847,1.473,1.473,0,0,1-.633.563,1.734,1.734,0,0,1-.307.121,2.946,2.946,0,0,1-.3.07,2.1,2.1,0,0,1-.267.034l-.054,0h-.032l-.064,0-.06,0Zm-.24-3.021a3.513,3.513,0,0,0-.343.417,2.91,2.91,0,0,0-.273.473,1.183,1.183,0,0,0-.111.487,1.027,1.027,0,0,0,.011.148.5.5,0,0,0,.052.149.591.591,0,0,0,.116.144.733.733,0,0,0,.2.129,1.16,1.16,0,0,0,.184.068c.049.013.114.029.175.04s.108.016.147.02h.015l.043,0h.165a1.617,1.617,0,0,0,.166-.017c.058-.011.12-.023.189-.039a1.031,1.031,0,0,0,.19-.066.64.64,0,0,0,.253-.23.7.7,0,0,0,.078-.349,1.654,1.654,0,0,0-.242-.752,4.876,4.876,0,0,0-.7-.937C32,4.455,31.894,4.56,31.777,4.682ZM13.872,7.7h-.19a2.7,2.7,0,0,1-.793-.122,1.569,1.569,0,0,1-.622-.379,1.152,1.152,0,0,1-.239-.337A1.849,1.849,0,0,1,11.9,6.51a1.742,1.742,0,0,1-.045-.334c0-.07,0-.134,0-.192V5.9c0-.025,0-.1,0-.225s0-.285.006-.481c0-.13,0-.274,0-.429V4.526q0-.374-.005-.791t-.009-.847c-.006-.293-.017-.578-.031-.852s-.032-.528-.052-.76S11.727.854,11.7.706l.928-.171q.043.242.074.592c.021.233.038.488.052.762s.025.561.033.859.012.59.012.873V6a2.624,2.624,0,0,0,.016.3.4.4,0,0,0,.125.244.741.741,0,0,0,.325.17,1.868,1.868,0,0,0,.514.062h.454c.183,0,.352,0,.506-.013a1.762,1.762,0,0,0,.422-.068.984.984,0,0,0,.331-.168.845.845,0,0,0,.237-.31.942.942,0,0,0,.071-.251,1.59,1.59,0,0,0,.014-.213c0-.041,0-.1-.01-.186a2.443,2.443,0,0,0-.061-.346,3.034,3.034,0,0,0-.152-.462l-.411-1.013.842-.417s.014.035.042.1.066.144.112.248.1.225.149.362.1.283.151.438a5.248,5.248,0,0,1,.246,1.212q.005.076.005.151a1.891,1.891,0,0,1-.142.758,1.808,1.808,0,0,1-.348.535,1.614,1.614,0,0,1-.475.341,2.233,2.233,0,0,1-.6.18,4.757,4.757,0,0,1-.722.052ZM51.048,2.13l.767-.767.777.777-.767.767Zm-2.078,0,.767-.772.776.777-.767.772ZM50.11.7l.7-.7.706.706-.7.7Z" transform="translate(186.556 154.297)" fill="#5a627a"/>
    <path id="ایمیل" d="M2.675,10.577a3.215,3.215,0,0,1-.6-.09,3.154,3.154,0,0,1-.608-.218A2.916,2.916,0,0,1,.9,9.912,2.361,2.361,0,0,1,.431,9.4a2.415,2.415,0,0,1-.318-.682A2.732,2.732,0,0,1,0,7.9V7.863A5.658,5.658,0,0,1,.095,6.808a5.265,5.265,0,0,1,.2-.738,2.469,2.469,0,0,1,.284-.578l.847.379q-.066.1-.13.229a2.146,2.146,0,0,0-.116.272,4.6,4.6,0,0,0-.173.623,4.215,4.215,0,0,0-.078.869,1.825,1.825,0,0,0,.083.566,1.624,1.624,0,0,0,.222.447,1.66,1.66,0,0,0,.322.337,2.015,2.015,0,0,0,.376.234,2.212,2.212,0,0,0,.386.142,1.836,1.836,0,0,0,.357.059c.041,0,.081,0,.119,0a2.665,2.665,0,0,0,.414-.036,2.285,2.285,0,0,0,.485-.135,2.2,2.2,0,0,0,.488-.265,1.858,1.858,0,0,0,.41-.4,2.007,2.007,0,0,0,.284-.554,2.26,2.26,0,0,0,.106-.717c0-.249,0-.545-.012-.886s-.018-.706-.029-1.094-.024-.788-.041-1.2-.031-.814-.047-1.2Q4.829,2.467,4.8,1.75T4.73.275L5.657.237Q5.7,1,5.726,1.721t.055,1.418q.023.582.045,1.185t.04,1.182a1.354,1.354,0,0,0,.064.385.984.984,0,0,0,.177.334.866.866,0,0,0,.3.235.957.957,0,0,0,.428.087h.61a3.578,3.578,0,0,0,.77-.071,1.416,1.416,0,0,0,.521-.213.849.849,0,0,0,.3-.355,1.2,1.2,0,0,0,.1-.5,3.834,3.834,0,0,0-.041-.55,4.846,4.846,0,0,0-.144-.639l.889-.251c.032.111.059.218.081.319s.04.212.057.325.031.237.045.369.028.283.04.45A3.053,3.053,0,0,0,10.1,5.8a1.292,1.292,0,0,0,.125.36.777.777,0,0,0,.241.274.667.667,0,0,0,.4.109h0a1.477,1.477,0,0,0,1.175-.687,4.484,4.484,0,0,0,.346-.572l.029-.057q.127-.25.2-.406l.075-.149.024-.049.033-.066c.042-.082.063-.117.069-.129L12.84,4.4l.006-.01a.19.19,0,0,1,.013-.02,1.855,1.855,0,0,1,.5-.571,1.16,1.16,0,0,1,.712-.22,1.38,1.38,0,0,1,.942.355,1.755,1.755,0,0,1,.319.385A2.763,2.763,0,0,1,15.7,5.3a4.425,4.425,0,0,1,.054.516.909.909,0,0,0,.052.28.744.744,0,0,0,.132.232.666.666,0,0,0,.209.157.624.624,0,0,0,.279.059h.838q.275,0,.535-.012a2.415,2.415,0,0,0,.482-.068,1.308,1.308,0,0,0,.393-.168.741.741,0,0,0,.265-.31.894.894,0,0,0,.071-.25,1.454,1.454,0,0,0,.014-.213c0-.041,0-.1-.01-.187a2.318,2.318,0,0,0-.061-.346,3.091,3.091,0,0,0-.151-.462l-.412-1.013L19.23,3.1s.014.035.043.1.066.145.111.249.1.224.149.362.1.283.151.438a5.3,5.3,0,0,1,.247,1.211c0,.05,0,.1,0,.151a1.872,1.872,0,0,1-.142.758,1.556,1.556,0,0,1-.376.536,1.862,1.862,0,0,1-.537.34,2.653,2.653,0,0,1-.665.18,5.209,5.209,0,0,1-.751.052H16.348A1.557,1.557,0,0,1,15.8,7.36a1.111,1.111,0,0,1-.451-.354,1.008,1.008,0,0,1-.83.45,1.426,1.426,0,0,1-.157-.009,4.068,4.068,0,0,1-1.832-.74,1.418,1.418,0,0,1-.4.384,2.122,2.122,0,0,1-1.174.382v0h-.189v0a1.647,1.647,0,0,1-.7-.161,1.553,1.553,0,0,1-.521-.424,1.956,1.956,0,0,1-.331.257,1.76,1.76,0,0,1-.427.185,3.326,3.326,0,0,1-.575.109,7.4,7.4,0,0,1-.774.035H6.737a2.024,2.024,0,0,1-.442-.053,1.632,1.632,0,0,1-.386-.154v.274A3.392,3.392,0,0,1,5.757,8.6a2.877,2.877,0,0,1-.405.806,2.555,2.555,0,0,1-.582.575,3.222,3.222,0,0,1-.689.372,3.31,3.31,0,0,1-.724.192,3.634,3.634,0,0,1-.512.038C2.788,10.581,2.732,10.58,2.675,10.577Zm10.856-5.53-.131.269-.055.111-.041.086-.13.266c-.032.062-.051.1-.061.124l-.014.028-.013.024a4.86,4.86,0,0,0,.647.379,2.281,2.281,0,0,0,.523.184.9.9,0,0,0,.156.014.432.432,0,0,0,.383-.18.643.643,0,0,0,.1-.227,1.061,1.061,0,0,0,.023-.232V5.819a2.4,2.4,0,0,0-.064-.46A1.674,1.674,0,0,0,14.7,4.94a.932.932,0,0,0-.258-.305.591.591,0,0,0-.368-.118C13.9,4.517,13.721,4.7,13.531,5.047Zm4.862,3.976.768-.767.776.771-.767.772Zm-9.61,0,.767-.767.777.771L9.559,9.8Zm7.67,0,.767-.772L18,9.023l-.768.767Zm-9.611,0,.767-.772.777.777-.767.767ZM21.309,7.466q.076-1.061.1-1.941.009-.4.01-.762c0-.293-.005-.572-.014-.833q-.094-2.3-.256-3.787L22.076,0q.2,1.922.241,3.447.011.589.014,1.125v.352q0,.416-.012,1.112t-.078,1.481Z" transform="translate(217.781 195.747)" fill="#5a627a"/>
    <path id="تومان" d="M16.267,10.491h0l-.218-.913a6.182,6.182,0,0,0,1.306-.406,4.678,4.678,0,0,0,.989-.588A2.963,2.963,0,0,0,19,7.89a1.809,1.809,0,0,0,.291-.723H18.75c-.134,0-.287-.007-.466-.023a2.014,2.014,0,0,1-1.52-.672,1.354,1.354,0,0,1-.274-.634,2.218,2.218,0,0,1-.032-.381A3.248,3.248,0,0,1,16.5,5a2.64,2.64,0,0,1,.187-.629,2.676,2.676,0,0,1,.345-.608,1.818,1.818,0,0,1,.523-.453,1.2,1.2,0,0,1,.586-.153,1.674,1.674,0,0,1,1.235.606,2.845,2.845,0,0,1,.359.5,3.608,3.608,0,0,1,.276.6,4.381,4.381,0,0,1,.179.668,4.428,4.428,0,0,1,.076.707h1.175q.274,0,.535-.012a2.415,2.415,0,0,0,.483-.068,1.3,1.3,0,0,0,.392-.168.731.731,0,0,0,.265-.311.925.925,0,0,0,.071-.25,1.59,1.59,0,0,0,.014-.213c0-.041,0-.1-.01-.187a2.443,2.443,0,0,0-.061-.346,3.1,3.1,0,0,0-.152-.462L22.564,3.21l.842-.417s.014.035.042.1.066.145.112.249.1.224.149.362.1.283.151.438a5.3,5.3,0,0,1,.247,1.211c0,.05,0,.1,0,.152a1.886,1.886,0,0,1-.142.757,1.568,1.568,0,0,1-.376.536,1.886,1.886,0,0,1-.537.34,2.663,2.663,0,0,1-.665.18,5.218,5.218,0,0,1-.751.052H20.192a3.607,3.607,0,0,1-.514,1.266,4.257,4.257,0,0,1-.9.988,4.909,4.909,0,0,1-1.174.69,5.8,5.8,0,0,1-1.336.379ZM17.878,4.2a1.03,1.03,0,0,0-.22.274,1.817,1.817,0,0,0-.164.371,2.11,2.11,0,0,0-.09.4,1.71,1.71,0,0,0-.014.214,1.483,1.483,0,0,0,.017.211.427.427,0,0,0,.1.224.583.583,0,0,0,.176.155,1.174,1.174,0,0,0,.228.095,2,2,0,0,0,.439.072c.146.01.291.015.444.015h.076l.125,0c.1,0,.212-.007.335-.016a3.489,3.489,0,0,0-.072-.573,3.14,3.14,0,0,0-.146-.5,2.9,2.9,0,0,0-.2-.418,2.011,2.011,0,0,0-.23-.324c-.031-.033-.067-.068-.105-.1a1.014,1.014,0,0,0-.128-.1.757.757,0,0,0-.145-.075.472.472,0,0,0-.16-.028A.393.393,0,0,0,17.878,4.2ZM2.033,10.271a2.93,2.93,0,0,1-.94-.449,2.529,2.529,0,0,1-.684-.76A2.969,2.969,0,0,1,.042,7.982,4.256,4.256,0,0,1,0,7.39c0-.12.01-.288.029-.5a4.434,4.434,0,0,1,.149-.764,5.734,5.734,0,0,1,.3-.836,6.641,6.641,0,0,1,.372-.717l.752.554a1.862,1.862,0,0,0-.142.244c-.053.105-.108.229-.163.372s-.108.3-.159.466a4.909,4.909,0,0,0-.125.527,4.406,4.406,0,0,0-.064.559c0,.054,0,.105,0,.157a2.786,2.786,0,0,0,.028.4,1.9,1.9,0,0,0,.074.3,1.731,1.731,0,0,0,.163.351,2.118,2.118,0,0,0,.275.357,1.857,1.857,0,0,0,.4.315,2.272,2.272,0,0,0,.549.227,2.677,2.677,0,0,0,.717.087,4.023,4.023,0,0,0,.909-.094,2.5,2.5,0,0,0,.715-.276,1.881,1.881,0,0,0,.517-.445A1.84,1.84,0,0,0,5.6,8.072a2.941,2.941,0,0,0,.138-.819V7.2a4.446,4.446,0,0,0-.062-.748A4.395,4.395,0,0,0,5.5,5.755c-.074-.22-.148-.41-.22-.573A3.924,3.924,0,0,0,5.091,4.8,1.219,1.219,0,0,0,5,4.658l.786-.5c.01.015.049.083.119.2s.149.276.239.473.179.427.269.691a5.3,5.3,0,0,1,.211.855,4.773,4.773,0,0,1,.058.752c0,.069-.005.206-.014.409a3.247,3.247,0,0,1-.185.816,2.82,2.82,0,0,1-.5.923,2.863,2.863,0,0,1-.755.642,3.389,3.389,0,0,1-.954.376,4.814,4.814,0,0,1-1.105.123A4.137,4.137,0,0,1,2.033,10.271Zm8.132-3.1h-.1a2.662,2.662,0,0,1-.792-.122,1.571,1.571,0,0,1-.623-.378,1.181,1.181,0,0,1-.239-.337,1.87,1.87,0,0,1-.123-.355,1.827,1.827,0,0,1-.045-.334c0-.071,0-.135,0-.192V5.294c0-.038,0-.087,0-.15,0-.124,0-.284.007-.481s0-.419,0-.672,0-.512,0-.79,0-.553-.01-.848-.016-.577-.031-.851S8.18.973,8.159.741,8.114.319,8.087.17L9.014,0q.042.242.073.592t.052.761q.022.413.033.859c.008.3.012.59.012.874V5.463a2.6,2.6,0,0,0,.016.3.4.4,0,0,0,.126.244.743.743,0,0,0,.324.171,1.91,1.91,0,0,0,.514.061h.067a1.618,1.618,0,0,0,.634-.13,1.5,1.5,0,0,0,.475-.346,2.267,2.267,0,0,0,.34-.492c.1-.183.194-.374.292-.571.085-.178.177-.354.273-.524a2.511,2.511,0,0,1,.327-.459,1.574,1.574,0,0,1,.417-.327,1.142,1.142,0,0,1,.547-.124,1.411,1.411,0,0,1,.66.149,1.608,1.608,0,0,1,.49.391,1.965,1.965,0,0,1,.326.549,2.975,2.975,0,0,1,.166.626,2.221,2.221,0,0,1,.024.33,3.841,3.841,0,0,1-.028.4,2.127,2.127,0,0,1-.151.542,1.661,1.661,0,0,1-.337.517,1.145,1.145,0,0,1-.52.305,1.511,1.511,0,0,1-.388.051,2.62,2.62,0,0,1-.292-.023,2.1,2.1,0,0,1-.472-.13,3.347,3.347,0,0,1-.534-.26,5.4,5.4,0,0,1-.473-.315,1.884,1.884,0,0,1-.386.4,1.583,1.583,0,0,1-.428.232,2.208,2.208,0,0,1-.483.109c-.141.016-.292.025-.45.027h0ZM13.358,4.26a.663.663,0,0,0-.166.167,2.788,2.788,0,0,0-.175.283c-.072.135-.143.27-.21.4l-.257.517a3.743,3.743,0,0,0,.786.459,1.19,1.19,0,0,0,.427.095.772.772,0,0,0,.166-.018.314.314,0,0,0,.156-.109.811.811,0,0,0,.131-.233,1.369,1.369,0,0,0,.077-.327,1.148,1.148,0,0,0,.009-.151,1.554,1.554,0,0,0-.019-.246c0-.023-.011-.061-.023-.114s-.027-.1-.053-.18a1.935,1.935,0,0,0-.094-.206.97.97,0,0,0-.138-.194.712.712,0,0,0-.189-.145.547.547,0,0,0-.25-.057A.309.309,0,0,0,13.358,4.26ZM2.6,4.1l.771-.772.777.777-.771.771ZM22.928,1.179,23.7.412l.777.771-.768.772Zm-1.941,0L21.754.4l.777.777-.767.767Z" transform="translate(41.227 71.61)" fill="#5a627a"/>
    <path id="امنیتوضمانتپرداختشما" d="M42.059,9.273l.637-.634.633.637L42.7,9.91Zm-4.886-.455c.19-.1.38-.2.571-.317a5.934,5.934,0,0,0,.545-.365,5.7,5.7,0,0,0,.485-.406,2.95,2.95,0,0,0,.39-.442,2.2,2.2,0,0,0,.259-.475,1.348,1.348,0,0,0,.1-.5,1.759,1.759,0,0,0-.052-.4c-.035-.148-.08-.3-.134-.461s-.113-.321-.175-.484-.119-.323-.17-.477l.974-.406c.105.317.2.578.29.785a2.687,2.687,0,0,0,.26.491.761.761,0,0,0,.267.251.692.692,0,0,0,.319.071h.828c.127,0,.265-.007.412-.022a1.631,1.631,0,0,0,.41-.094.8.8,0,0,0,.312-.205A.5.5,0,0,0,43.183,5a1.414,1.414,0,0,0-.045-.3c-.03-.127-.069-.267-.118-.422s-.106-.313-.172-.479-.136-.319-.209-.463l.937-.463c.067.155.135.318.2.491s.128.351.18.534a5.169,5.169,0,0,1,.128.55,3.1,3.1,0,0,1,.049.539,1.682,1.682,0,0,1-.175.8,1.463,1.463,0,0,1-.476.534,2.1,2.1,0,0,1-.707.3,3.825,3.825,0,0,1-.862.094h-.856a2.032,2.032,0,0,1-.234-.024.94.94,0,0,1-.351-.147,2.531,2.531,0,0,1-.312.98,4.207,4.207,0,0,1-.652.878,5.758,5.758,0,0,1-.88.751,7.759,7.759,0,0,1-1,.6Zm38.907.743h0l-.244-1.014a5.72,5.72,0,0,0,1.077-.314,4.4,4.4,0,0,0,.834-.439,2.673,2.673,0,0,0,.574-.52,1.531,1.531,0,0,0,.294-.552c-.238,0-.448-.007-.64-.021a4.191,4.191,0,0,1-.591-.079,2.3,2.3,0,0,1-.511-.166,1.291,1.291,0,0,1-.4-.284,1.218,1.218,0,0,1-.263-.428,1.748,1.748,0,0,1-.094-.6,2.461,2.461,0,0,1,.049-.467A2.877,2.877,0,0,1,76.3,4.2a2.518,2.518,0,0,1,.226-.443,1.889,1.889,0,0,1,.309-.37,1.412,1.412,0,0,1,.385-.253,1.116,1.116,0,0,1,.454-.094,1.548,1.548,0,0,1,1.147.561,2.565,2.565,0,0,1,.336.469,3.264,3.264,0,0,1,.251.56,3.778,3.778,0,0,1,.158.623,3.884,3.884,0,0,1,.055.657,3.459,3.459,0,0,1-.132.971,3.28,3.28,0,0,1-.369.835,3.422,3.422,0,0,1-.566.687,4.092,4.092,0,0,1-.723.539A4.688,4.688,0,0,1,77,9.327a5.491,5.491,0,0,1-.916.234Zm1.372-5.389a1.079,1.079,0,0,0-.223.229,1.418,1.418,0,0,0-.168.311.919.919,0,0,0-.066.332.478.478,0,0,0,.078.282.591.591,0,0,0,.2.181,1.052,1.052,0,0,0,.279.1,3.032,3.032,0,0,0,.311.05l.045,0,.141.005.048,0,.16.005.1,0,.1,0h.213a1.849,1.849,0,0,0-.059-.326A2.985,2.985,0,0,0,78.494,5a3.2,3.2,0,0,0-.166-.343,1.893,1.893,0,0,0-.2-.293,1.057,1.057,0,0,0-.221-.205.354.354,0,0,0-.454.013ZM42.769,8.1l.689-.689.7.694-.69.694Zm-1.535,0,.69-.694.7.7-.689.69Zm51.494-.179.689-.689.7.694-.69.694Zm-1.535,0,.69-.694.7.7-.689.69ZM69.249,6.775a3.2,3.2,0,0,1-.592-.1,2.218,2.218,0,0,1-.514-.212,2.885,2.885,0,0,1-.489-.362A1.744,1.744,0,0,1,67,6.567a2.461,2.461,0,0,1-.907.152h-.155a.716.716,0,0,1-.4-.124,1.4,1.4,0,0,1-.318-.319,1.179,1.179,0,0,0-.1.11c-.035.042-.076.086-.126.136a1.214,1.214,0,0,1-.135.119.312.312,0,0,1-.135.066,3,3,0,0,1-.5-.059c-.192-.038-.386-.086-.578-.144a5.776,5.776,0,0,1-.563-.2,2.593,2.593,0,0,1-.457-.239c-.1.1-.206.2-.308.28a1.718,1.718,0,0,1-.313.2,1.516,1.516,0,0,1-.351.129,1.757,1.757,0,0,1-.347.044h-.163A1.725,1.725,0,0,1,59.9,6.306a1.681,1.681,0,0,1-.43-1.25c0-.086,0-.229.008-.428,0-.148.006-.323.007-.521V3.9q0-.255,0-.55t-.012-.6c-.005-.2-.014-.409-.023-.613s-.021-.4-.034-.592-.03-.37-.049-.536S59.323.7,59.3.568l1.019-.3q.045.235.081.574t.065.724q.028.385.043.785c.009.266.014.517.014.753,0,.143,0,.3,0,.456s0,.3,0,.424c0,.1,0,.2,0,.291s0,.177,0,.261,0,.167,0,.247v.313a.985.985,0,0,0,.031.259.4.4,0,0,0,.107.189.445.445,0,0,0,.2.107,1.073,1.073,0,0,0,.278.032h.1a1,1,0,0,0,.495-.112,1.166,1.166,0,0,0,.341-.29,2.2,2.2,0,0,0,.249-.4c.08-.168.164-.335.221-.446a5.121,5.121,0,0,1,.26-.47,2.465,2.465,0,0,1,.33-.426,1.648,1.648,0,0,1,.417-.306,1.139,1.139,0,0,1,.519-.117,1.384,1.384,0,0,1,.634.132,1.23,1.23,0,0,1,.43.362,1.848,1.848,0,0,1,.274.536,5.647,5.647,0,0,1,.171.666c.021.113.046.229.076.366a1.526,1.526,0,0,0,.083.275.548.548,0,0,0,.1.171.171.171,0,0,0,.131.059h.1a1.512,1.512,0,0,0,.368-.037.992.992,0,0,0,.248-.091.713.713,0,0,0,.156-.115,1.27,1.27,0,0,0,.1-.114,2.058,2.058,0,0,0,.221-.407,3.57,3.57,0,0,0,.14-.406c.04-.143.072-.273.1-.4s.055-.255.089-.386l.876.28c-.029.127-.055.246-.079.355a2.231,2.231,0,0,0-.042.322v.069a1.558,1.558,0,0,0,.025.263,1.077,1.077,0,0,0,.11.305c.054-.108.113-.213.172-.315.072-.122.153-.246.24-.368s.186-.254.3-.4.23-.262.364-.394a4.258,4.258,0,0,1,.486-.383,3.74,3.74,0,0,1,.531-.3,2.868,2.868,0,0,1,.564-.194,2.565,2.565,0,0,1,.589-.069,1.922,1.922,0,0,1,.728.142,1.974,1.974,0,0,1,.61.388,1.781,1.781,0,0,1,.409.57,1.414,1.414,0,0,1,.117.563c0,.043,0,.086,0,.135a1.945,1.945,0,0,1-.213.761,2.012,2.012,0,0,1-.446.56,2.413,2.413,0,0,1-.616.383,4.2,4.2,0,0,1-.725.236,5.682,5.682,0,0,1-.766.122c-.267.023-.518.035-.748.035C69.71,6.8,69.466,6.792,69.249,6.775Zm2.106-2.8a1.631,1.631,0,0,0-.315.082,3.134,3.134,0,0,0-.319.139,3.186,3.186,0,0,0-.3.172c-.093.06-.182.124-.266.191a3.463,3.463,0,0,0-.317.284c-.108.108-.2.206-.275.3s-.16.2-.223.291a2.941,2.941,0,0,0-.159.249c.188.008.394.015.613.02.1,0,.2,0,.3,0,.126,0,.279,0,.48-.013a5.027,5.027,0,0,0,.626-.068,2.861,2.861,0,0,0,.638-.176,1.575,1.575,0,0,0,.5-.319,1,1,0,0,0,.28-.5.6.6,0,0,0-.144-.349.846.846,0,0,0-.3-.222,1.252,1.252,0,0,0-.392-.1,1.554,1.554,0,0,0-.163-.008A1.388,1.388,0,0,0,71.355,3.974Zm-7.618.238a1.172,1.172,0,0,0-.23.261,2.086,2.086,0,0,0-.184.336c-.046.1-.092.21-.14.325.089.038.2.083.343.14s.282.111.457.172c.158.056.324.106.492.152a2.558,2.558,0,0,0,.457.083c-.027-.113-.054-.232-.084-.355s-.061-.243-.094-.358a3.264,3.264,0,0,0-.118-.33,1.259,1.259,0,0,0-.152-.275.713.713,0,0,0-.2-.187.49.49,0,0,0-.255-.069A.446.446,0,0,0,63.736,4.212Zm-52.3,2.557a1.129,1.129,0,0,1-.349-.051,1.1,1.1,0,0,1-.29-.141,1.281,1.281,0,0,1-.236-.21,2.24,2.24,0,0,1-.184-.239,2.119,2.119,0,0,1-.2.25,1.167,1.167,0,0,1-.254.2,1.376,1.376,0,0,1-.325.136,1.674,1.674,0,0,1-.416.055H9.15a1.111,1.111,0,0,1-.626-.185,1.272,1.272,0,0,1-.239-.205,2.242,2.242,0,0,1-.2-.247A1.417,1.417,0,0,1,7.9,6.35a1.125,1.125,0,0,1-.264.189,1.524,1.524,0,0,1-.367.132,2.2,2.2,0,0,1-.479.049H6.63A.715.715,0,0,1,6.242,6.6a1.4,1.4,0,0,1-.318-.319,1.178,1.178,0,0,0-.1.11c-.036.042-.076.086-.126.136a1.3,1.3,0,0,1-.135.119.312.312,0,0,1-.135.066,3,3,0,0,1-.495-.059c-.192-.038-.386-.086-.578-.144a5.776,5.776,0,0,1-.563-.2,2.593,2.593,0,0,1-.457-.239c-.1.1-.206.2-.308.28a1.718,1.718,0,0,1-.313.2,1.516,1.516,0,0,1-.351.129,1.758,1.758,0,0,1-.347.044H1.85A1.728,1.728,0,0,1,.6,6.306a1.685,1.685,0,0,1-.43-1.25c0-.086,0-.229.008-.428,0-.148.007-.323.008-.521V3.9q0-.255,0-.55T.17,2.75Q.162,2.443.149,2.137T.113,1.544q-.02-.286-.049-.536T0,.568l1.019-.3Q1.063.5,1.1.838t.065.724q.028.385.042.785t.014.753c0,.143,0,.3,0,.456,0,.107,0,.206,0,.3v.128c0,.1,0,.2,0,.291s0,.177,0,.261,0,.167,0,.247,0,.164,0,.247v.066a1.026,1.026,0,0,0,.03.259.411.411,0,0,0,.108.189.445.445,0,0,0,.2.107,1.061,1.061,0,0,0,.277.032h.1a1,1,0,0,0,.495-.112,1.166,1.166,0,0,0,.341-.29,2.2,2.2,0,0,0,.249-.4c.08-.168.164-.335.221-.446a5.122,5.122,0,0,1,.26-.47,2.505,2.505,0,0,1,.329-.426,1.669,1.669,0,0,1,.418-.306,1.139,1.139,0,0,1,.519-.117,1.384,1.384,0,0,1,.635.132,1.23,1.23,0,0,1,.43.362,1.847,1.847,0,0,1,.275.536,5.829,5.829,0,0,1,.171.666c.021.113.046.229.076.366a1.525,1.525,0,0,0,.083.275.548.548,0,0,0,.1.171.171.171,0,0,0,.131.059h.126a.816.816,0,0,0,.4-.1,1.1,1.1,0,0,0,.312-.259,1.853,1.853,0,0,0,.239-.37,3.617,3.617,0,0,0,.181-.426Q8,4.31,8.059,4.1c.038-.142.071-.27.1-.383l1.015.223c-.025.076-.058.172-.1.29S9,4.469,8.962,4.6s-.068.263-.092.4a1.52,1.52,0,0,0-.028.281c0,.027,0,.074.008.141a.391.391,0,0,0,.083.2.29.29,0,0,0,.246.1.552.552,0,0,0,.328-.1,1.081,1.081,0,0,0,.262-.272,2.027,2.027,0,0,0,.2-.383,4.15,4.15,0,0,0,.149-.44q.063-.225.106-.441c.028-.143.05-.272.067-.385l.95.183c-.008.065-.02.142-.034.231s-.031.186-.047.29-.031.213-.047.327-.026.228-.034.341v.065a1.039,1.039,0,0,0,.02.2.5.5,0,0,0,.086.2.471.471,0,0,0,.17.146.6.6,0,0,0,.26.059.732.732,0,0,0,.471-.147.537.537,0,0,0,.183-.446,2.1,2.1,0,0,0-.059-.474,4.983,4.983,0,0,0-.141-.5c-.056-.162-.114-.315-.177-.458s-.116-.263-.162-.357l.873-.487.046.092.032.07c.037.078.079.175.126.29s.1.245.144.388.094.294.136.453a4.728,4.728,0,0,1,.1.485,3.1,3.1,0,0,1,.039.487,1.9,1.9,0,0,1-.116.681,1.384,1.384,0,0,1-.34.519,1.5,1.5,0,0,1-.554.329,2.144,2.144,0,0,1-.726.113Zm-7-2.557a1.229,1.229,0,0,0-.23.261,2.271,2.271,0,0,0-.183.336c-.046.1-.092.21-.14.325.077.032.181.075.345.14.132.055.276.109.454.172.161.056.327.107.494.152a2.558,2.558,0,0,0,.457.083l-.005-.015c-.025-.109-.052-.222-.078-.34s-.063-.249-.1-.358a3.025,3.025,0,0,0-.118-.33,1.187,1.187,0,0,0-.151-.275.729.729,0,0,0-.2-.187.49.49,0,0,0-.257-.069A.448.448,0,0,0,4.436,4.212ZM35.574,6.761a2.978,2.978,0,0,1-.545-.051,3.891,3.891,0,0,1-.542-.14,4.731,4.731,0,0,1-.511-.205,4.62,4.62,0,0,1-.456-.246l.43-.994a3.516,3.516,0,0,0,.372.2c.144.068.294.128.45.183a4.576,4.576,0,0,0,.459.133,1.762,1.762,0,0,0,.4.053c.046,0,.1,0,.171,0s.139-.008.215-.018a1.681,1.681,0,0,0,.227-.044.841.841,0,0,0,.205-.085.482.482,0,0,0,.148-.138.381.381,0,0,0,.061-.205V5.186a.927.927,0,0,0-.091-.367,2.634,2.634,0,0,0-.25-.43,4.546,4.546,0,0,0-.365-.452c-.138-.152-.281-.3-.43-.437s-.3-.268-.448-.385a4.887,4.887,0,0,0-.419-.3l.6-.9a7.45,7.45,0,0,1,.737.576,6.485,6.485,0,0,1,.67.684,5.024,5.024,0,0,1,.531.757,3.033,3.033,0,0,1,.323.795,2,2,0,0,1,.052.443,1.94,1.94,0,0,1-.075.487,1.3,1.3,0,0,1-.338.558,1.725,1.725,0,0,1-.67.419,2.234,2.234,0,0,1-.768.126C35.67,6.764,35.623,6.764,35.574,6.761Zm48.253-.343A2.323,2.323,0,0,1,82.6,5.474a2.129,2.129,0,0,1-.235-.633,2.4,2.4,0,0,1-.049-.479c0-.062,0-.164.013-.3a2.379,2.379,0,0,1,.116-.53,2.962,2.962,0,0,1,.267-.6l.784.491a2.585,2.585,0,0,0-.2.39,1.481,1.481,0,0,0-.1.39,1.319,1.319,0,0,0-.008.146,1.478,1.478,0,0,0,.031.281,1.016,1.016,0,0,0,.152.348.927.927,0,0,0,.345.325,2.27,2.27,0,0,0,.563.22,4.922,4.922,0,0,0,.744.125c.276.027.573.04.893.04q.435,0,.823-.032a5.748,5.748,0,0,0,.725-.1,3.44,3.44,0,0,0,.607-.183,1.77,1.77,0,0,0,.467-.274,1.156,1.156,0,0,0,.288-.32,2.2,2.2,0,0,0,.183-.383,3.558,3.558,0,0,0,.121-.412c.032-.14.067-.275.105-.406l.933.252a3.069,3.069,0,0,0-.121.438,2.006,2.006,0,0,0-.04.393v.132a1.025,1.025,0,0,0,.057.292.827.827,0,0,0,.183.317.847.847,0,0,0,.33.213,1.436,1.436,0,0,0,.5.076h.134a4.973,4.973,0,0,0,.8-.054,1.764,1.764,0,0,0,.526-.161.675.675,0,0,0,.29-.266.742.742,0,0,0,.09-.371,1.739,1.739,0,0,0-.053-.368q-.053-.228-.158-.59l1-.28c.035.12.063.224.084.315s.036.181.049.272.022.188.032.293.02.228.031.371a1.282,1.282,0,0,0,.06.278,1.041,1.041,0,0,0,.137.272.788.788,0,0,0,.212.207.516.516,0,0,0,.293.083h.069a1.683,1.683,0,0,0,.935-.212.721.721,0,0,0,.314-.639,1.77,1.77,0,0,0-.057-.38q-.057-.242-.162-.6l1-.28c.035.12.063.226.083.319s.038.187.053.28.027.194.037.3.019.232.03.375c.008.086.022.179.039.278a1.035,1.035,0,0,0,.087.272A.6.6,0,0,0,97.2,5.6a.413.413,0,0,0,.27.083,1.121,1.121,0,0,0,.515-.111,1.414,1.414,0,0,0,.388-.291,2.1,2.1,0,0,0,.3-.4c.086-.149.167-.3.242-.446s.159-.313.247-.466a2.292,2.292,0,0,1,.3-.416,1.483,1.483,0,0,1,.392-.3,1.072,1.072,0,0,1,.506-.115,1.386,1.386,0,0,1,.478.078,1.356,1.356,0,0,1,.389.22,1.564,1.564,0,0,1,.3.324,2.012,2.012,0,0,1,.216.4,2.388,2.388,0,0,1,.169.89,2.312,2.312,0,0,1-.034.4,2.093,2.093,0,0,1-.1.378,1.4,1.4,0,0,1-.2.353,1.306,1.306,0,0,1-.622.442,1.205,1.205,0,0,1-.382.06,1.636,1.636,0,0,1-.36-.042,2.85,2.85,0,0,1-.383-.116c-.05-.021-.11-.048-.191-.087-.065-.03-.131-.065-.214-.111s-.158-.09-.218-.128c-.083-.051-.146-.094-.2-.132a2.47,2.47,0,0,1-.688.488,1.964,1.964,0,0,1-.765.169H97.39a1.561,1.561,0,0,1-.59-.125,1.489,1.489,0,0,1-.468-.325,1.8,1.8,0,0,1-.68.341,3.708,3.708,0,0,1-.959.11H94.53a1.455,1.455,0,0,1-1.048-.449.839.839,0,0,1-.4.262,2.96,2.96,0,0,1-.582.134,6.032,6.032,0,0,1-.66.049l-.427.005h-.346a3,3,0,0,1-.6-.057,1.779,1.779,0,0,1-.5-.181,1.563,1.563,0,0,1-.4-.317,2.022,2.022,0,0,1-.308-.464,4.774,4.774,0,0,1-3.34,1.031A6.246,6.246,0,0,1,83.827,6.418ZM100.3,4.143a.244.244,0,0,0-.112.064.933.933,0,0,0-.132.17c-.055.087-.118.2-.182.319l-.012.023c-.063.121-.149.287-.248.487.076.049.168.1.275.162a3.487,3.487,0,0,0,.342.162,2,2,0,0,0,.354.11.764.764,0,0,0,.178.023.393.393,0,0,0,.118-.016.177.177,0,0,0,.088-.049.443.443,0,0,0,.085-.116.729.729,0,0,0,.063-.17.937.937,0,0,0,.016-.178V5.092a1.128,1.128,0,0,0-.063-.366A1.1,1.1,0,0,0,100.9,4.4a.764.764,0,0,0-.26-.219.5.5,0,0,0-.219-.049A.688.688,0,0,0,100.3,4.143ZM48.437,6.418a2.325,2.325,0,0,1-1.223-.944,2.156,2.156,0,0,1-.236-.633,2.4,2.4,0,0,1-.049-.479c0-.062.005-.164.014-.3a2.329,2.329,0,0,1,.116-.53,2.963,2.963,0,0,1,.267-.6l.783.491a2.664,2.664,0,0,0-.194.39,1.481,1.481,0,0,0-.1.39,1.319,1.319,0,0,0-.008.146,1.478,1.478,0,0,0,.031.281,1.016,1.016,0,0,0,.152.348.927.927,0,0,0,.345.325,2.263,2.263,0,0,0,.562.22,4.935,4.935,0,0,0,.745.125q.413.04.893.04.433,0,.824-.032a5.748,5.748,0,0,0,.724-.1,3.44,3.44,0,0,0,.607-.183,1.764,1.764,0,0,0,.466-.274,1.159,1.159,0,0,0,.289-.32,2.2,2.2,0,0,0,.182-.383,3.393,3.393,0,0,0,.122-.412c.032-.14.067-.275.105-.406l.933.252a3.069,3.069,0,0,0-.122.438,2.006,2.006,0,0,0-.041.393v.132a1.025,1.025,0,0,0,.057.292.827.827,0,0,0,.183.317.84.84,0,0,0,.33.213,1.436,1.436,0,0,0,.5.076h.637a3.667,3.667,0,0,0,.391-.022,1.254,1.254,0,0,0,.364-.094.676.676,0,0,0,.265-.205.566.566,0,0,0,.1-.357,1.414,1.414,0,0,0-.045-.3c-.03-.127-.068-.267-.118-.422s-.105-.313-.172-.479-.136-.319-.209-.463l.937-.463c.068.155.135.318.2.491s.128.351.18.534a5.169,5.169,0,0,1,.128.55,3.1,3.1,0,0,1,.049.539,1.819,1.819,0,0,1-.154.781,1.417,1.417,0,0,1-.43.536,1.839,1.839,0,0,1-.66.308,3.33,3.33,0,0,1-.841.1h-.645a3.013,3.013,0,0,1-.6-.057,1.773,1.773,0,0,1-.5-.181,1.547,1.547,0,0,1-.4-.317,2.022,2.022,0,0,1-.308-.464,4.774,4.774,0,0,1-3.34,1.031A6.256,6.256,0,0,1,48.437,6.418Zm-31.122,0a2.318,2.318,0,0,1-1.223-.944,2.107,2.107,0,0,1-.236-.633,2.4,2.4,0,0,1-.049-.479c0-.062,0-.164.014-.3a2.32,2.32,0,0,1,.115-.53,2.966,2.966,0,0,1,.268-.6l.783.491a2.664,2.664,0,0,0-.194.39,1.484,1.484,0,0,0-.1.39,1.319,1.319,0,0,0-.008.146,1.555,1.555,0,0,0,.031.281,1.034,1.034,0,0,0,.152.348.923.923,0,0,0,.346.325,2.263,2.263,0,0,0,.562.22,4.942,4.942,0,0,0,.744.125q.414.04.893.04.435,0,.824-.032a5.757,5.757,0,0,0,.724-.1,3.474,3.474,0,0,0,.608-.183,1.764,1.764,0,0,0,.466-.274,1.156,1.156,0,0,0,.288-.32,2.2,2.2,0,0,0,.183-.383,3.557,3.557,0,0,0,.122-.412c.032-.14.068-.275.106-.406l.933.252a3.072,3.072,0,0,0-.122.438,2.006,2.006,0,0,0-.041.393v.132a1.025,1.025,0,0,0,.057.292.827.827,0,0,0,.183.317.844.844,0,0,0,.331.213,1.433,1.433,0,0,0,.5.076h.864a5.65,5.65,0,0,0,1.024-.1A9.147,9.147,0,0,0,27.5,5.334q.516-.157,1.007-.359c.327-.135.637-.274.929-.418a3.724,3.724,0,0,1-.649-.2c-.2-.086-.39-.168-.568-.25s-.351-.151-.516-.211a1.441,1.441,0,0,0-.491-.089.7.7,0,0,0-.266.05,1.1,1.1,0,0,0-.229.128,1.14,1.14,0,0,0-.188.171c-.056.062-.1.122-.147.18s-.076.111-.1.157l-.057.1-.844-.548a3.264,3.264,0,0,1,.329-.473,2.642,2.642,0,0,1,.424-.41,2.04,2.04,0,0,1,.5-.288,1.549,1.549,0,0,1,.576-.108,2.394,2.394,0,0,1,.621.083,4.724,4.724,0,0,1,.611.211c.2.086.4.176.607.274s.408.189.615.275a5.611,5.611,0,0,0,.627.215,2.572,2.572,0,0,0,.649.091l-.085,1.047q-.568.273-1.184.577t-1.291.562a11.307,11.307,0,0,1-1.406.434,7.148,7.148,0,0,1-1.536.194h-.88a3.013,3.013,0,0,1-.6-.057,1.762,1.762,0,0,1-.5-.181,1.532,1.532,0,0,1-.4-.317,2.024,2.024,0,0,1-.309-.464,4.771,4.771,0,0,1-3.34,1.031A6.25,6.25,0,0,1,17.315,6.418Zm85.627-2.072q0-.414-.013-.775-.032-.832-.073-1.564t-.11-1.4L103.79.264q.1.775.142,1.48t.049,1.377q.008.572.006,1.059t-.011.907q-.008.42-.024.783t-.032.68l-1.063.163Q102.942,5.373,102.942,4.346Zm-71.118,0q0-.414-.012-.775-.032-.832-.073-1.564T31.63.6L32.673.264q.1.775.142,1.48t.049,1.377q.008.572.005,1.059t-.01.907q-.008.42-.024.783t-.032.68l-1.063.163Q31.824,5.373,31.824,4.346ZM86.336,2.6l.69-.69.7.694-.689.694Zm-35.389,0,.69-.69.7.694-.689.694Zm-31.122,0,.689-.69.7.694-.69.694Zm64.977,0,.689-.694.7.7-.69.689Zm-35.389,0L50.1,1.9l.7.7-.69.689Zm-31.123,0,.69-.694.7.7-.689.689Zm76.754-.4.776-.775.778.775-.778.779ZM10.51,1.805l.689-.689.7.694-.69.694Zm-1.534,0,.689-.694.7.7-.69.69Zm47.226-.3.775-.775.779.775-.779.778ZM70.97,1.5l.775-.775.779.775-.779.779ZM26.411,1.465,27.186.69l.779.775-.779.778ZM9.8.633,10.437,0l.637.637-.634.633Z" transform="translate(70.613 19.402)" fill="#5a627a"/>
  </g>
</svg>
